<svg width="120" height="120" viewBox="0 0 120 120" fill="none" xmlns="http://www.w3.org/2000/svg">
<path d="M8.76828 39.164C8.76828 23.0959 21.794 10.0702 37.8619 10.0702H82.1381C98.2061 10.0702 111.232 23.0959 111.232 39.164V80.8361C111.232 96.9041 98.2061 109.93 82.1381 109.93H37.8619C21.794 109.93 8.76828 96.9041 8.76828 80.8361V39.164Z" fill="#F4F8FB"/>
<path d="M30.7654 23.7713L31.5559 22.9806L33.3561 24.7808L32.5656 25.5714L30.7654 23.7713Z" fill="#F87304"/>
<path d="M33.761 26.7671L34.5518 25.9766L36.3521 27.7766L35.5613 28.5674L33.761 26.7671Z" fill="#F87304"/>
<path d="M35.5613 22.9806L36.3521 23.7713L34.5518 25.5714L33.761 24.7808L35.5613 22.9806Z" fill="#F87304"/>
<path d="M32.5656 25.9766L33.3561 26.7671L31.5559 28.5674L30.7654 27.7766L32.5656 25.9766Z" fill="#F87304"/>
<path d="M99.0012 60.6L99.792 59.8092L101.592 61.6094L100.801 62.4L99.0012 60.6Z" fill="#F87304"/>
<path d="M101.997 63.5957L102.788 62.8052L104.588 64.6052L103.797 65.396L101.997 63.5957Z" fill="#F87304"/>
<path d="M103.797 59.8092L104.588 60.6L102.788 62.4L101.997 61.6094L103.797 59.8092Z" fill="#F87304"/>
<path d="M100.801 62.8052L101.592 63.5957L99.792 65.396L99.0012 64.6052L100.801 62.8052Z" fill="#F87304"/>
<path d="M56.1902 92.755L56.9808 91.9642L58.781 93.7645L57.9905 94.5553L56.1902 92.755Z" fill="#F87304"/>
<path d="M59.1859 95.7508L59.9767 94.9602L61.777 96.7604L60.9862 97.551L59.1859 95.7508Z" fill="#F87304"/>
<path d="M60.9862 91.9642L61.777 92.755L59.9767 94.5553L59.1859 93.7645L60.9862 91.9642Z" fill="#F87304"/>
<path d="M57.9905 94.9602L58.781 95.7508L56.9808 97.551L56.1902 96.7604L57.9905 94.9602Z" fill="#F87304"/>
<path d="M26.0712 38.5093C23.2644 38.5093 20.9891 40.7845 20.9891 43.5913V49.8027C21.0208 49.8022 21.0496 49.7912 21.0814 49.7912C26.7218 49.7912 31.302 54.3596 31.302 60.0001C31.302 65.6406 26.7218 70.209 21.0814 70.209C21.0496 70.209 21.0208 70.1979 20.9891 70.1974V76.4089C20.9891 79.2157 23.2644 81.4909 26.0712 81.4909H93.9288C96.7356 81.4909 99.0108 79.2157 99.0108 76.4089V70.1974C98.9909 70.1977 98.9731 70.209 98.9532 70.209C93.3127 70.209 88.7326 65.6406 88.7328 60.0001C88.7328 54.3596 93.3127 49.7912 98.9532 49.7912C98.9731 49.7912 98.9909 49.8025 99.0108 49.8027V43.5913C99.0108 40.7845 96.7356 38.5093 93.9288 38.5093H26.0712Z" fill="#3375AF"/>
<path d="M82.7971 52.0798C68.7103 52.0798 57.2918 63.3368 57.2918 77.2244C57.2918 78.5223 57.4226 79.7895 57.6149 81.0344H93.179C95.9858 81.0344 98.5145 79.6342 98.5145 76.8673L98.5085 70.7158C93.168 70.7329 88.2151 65.5318 88.2151 59.971C88.2151 57.4407 89.0189 55.1934 90.5633 53.3C88.1266 52.5375 85.4899 52.0798 82.7971 52.0798Z" fill="#00529B"/>
<path d="M38.598 58.5071H36.8242V57.4979C37.2924 57.4773 37.62 57.4461 37.8074 57.4043C38.1055 57.3385 38.3484 57.2068 38.5356 57.009C38.664 56.8737 38.761 56.6934 38.827 56.4681C38.8651 56.3327 38.8841 56.2321 38.8841 56.1664H40.117V63.7091H38.598V58.5071Z" fill="#F4F8FB"/>
<path d="M45.96 61.9924C45.8213 62.1104 45.7051 62.2475 45.6115 62.4035H48.9043V63.7091H43.7388C43.7527 63.1681 43.8689 62.674 44.0873 62.2266C44.299 61.7238 44.7982 61.1915 45.5856 60.6296C46.2686 60.1405 46.711 59.7904 46.9121 59.5787C47.2207 59.2494 47.375 58.8887 47.375 58.4968C47.375 58.1778 47.2865 57.9124 47.1096 57.7009C46.9327 57.4892 46.6798 57.3836 46.3502 57.3836C45.8993 57.3836 45.5926 57.5516 45.4294 57.8881C45.3358 58.0823 45.2803 58.3909 45.263 58.814H43.8221C43.8463 58.1725 43.9625 57.6541 44.1706 57.2586C44.5658 56.5062 45.2681 56.1299 46.2773 56.1299C47.075 56.1299 47.7096 56.3509 48.1812 56.793C48.653 57.2353 48.8887 57.8204 48.8887 58.5488C48.8887 59.1071 48.7224 59.6029 48.3893 60.0366C48.1709 60.3244 47.8118 60.6452 47.3126 60.999L46.7196 61.4202C46.3486 61.6837 46.0954 61.8745 45.96 61.9924Z" fill="#F4F8FB"/>
<path d="M52.7654 57.6697C52.5989 57.8915 52.5192 58.1881 52.5262 58.5592H51.1423C51.1562 58.1845 51.2206 57.8291 51.3348 57.4928C51.4562 57.1979 51.647 56.9257 51.9072 56.6761C52.1014 56.4992 52.332 56.3639 52.5989 56.2703C52.866 56.1767 53.1938 56.1299 53.5822 56.1299C54.3036 56.1299 54.8854 56.3164 55.3274 56.6891C55.7695 57.0618 55.9906 57.5622 55.9906 58.1898C55.9906 58.6338 55.8588 59.0082 55.5953 59.3135C55.429 59.5043 55.2554 59.6344 55.0752 59.7037C55.2103 59.7037 55.4045 59.8199 55.6577 60.0522C56.0357 60.4024 56.2248 60.8809 56.2248 61.4879C56.2248 62.126 56.0038 62.6869 55.5614 63.1708C55.1194 63.6546 54.4646 63.8963 53.5978 63.8963C52.5295 63.8963 51.7874 63.5478 51.3713 62.8508C51.1529 62.4798 51.0314 61.9943 51.0072 61.3943H52.4638C52.4638 61.696 52.5122 61.9456 52.6094 62.1433C52.7897 62.5074 53.1175 62.6896 53.5925 62.6896C53.8838 62.6896 54.138 62.5897 54.3547 62.3905C54.5714 62.1911 54.6797 61.904 54.6797 61.5294C54.6797 61.0336 54.4786 60.7024 54.0763 60.536C53.8474 60.4422 53.4869 60.3954 52.9944 60.3954V59.3344C53.4763 59.3274 53.8128 59.2806 54.0036 59.1937C54.3329 59.0483 54.4978 58.7533 54.4978 58.3096C54.4978 58.0216 54.4135 57.7876 54.2455 57.6073C54.0773 57.4268 53.8404 57.3366 53.5354 57.3366C53.185 57.3366 52.9284 57.4477 52.7654 57.6697Z" fill="#F4F8FB"/>
<path d="M58.2912 60.0366H61.277V61.4411H58.2912V60.0366Z" fill="#F4F8FB"/>
<path d="M68.561 60.926V62.0862H67.7078V63.7091H66.2566V62.0862H63.2707V60.7909L66.0432 56.2131H67.7078V60.926H68.561ZM64.3682 60.926H66.2566V57.6697L64.3682 60.926Z" fill="#F4F8FB"/>
<path d="M72.4274 57.5241L72.1567 59.1731C72.3857 59.0238 72.5642 58.9252 72.6926 58.8765C72.9077 58.7968 73.1695 58.7569 73.4781 58.7569C74.1024 58.7569 74.6469 58.9667 75.1116 59.3862C75.5762 59.806 75.8085 60.4163 75.8085 61.2174C75.8085 61.9144 75.5849 62.5369 75.1375 63.0849C74.6901 63.6328 74.0208 63.9069 73.1297 63.9069C72.4118 63.9069 71.8221 63.7144 71.3609 63.3294C70.8996 62.9445 70.643 62.3982 70.5909 61.6907H72.0684C72.1274 62.0133 72.24 62.2621 72.4065 62.4373C72.5729 62.6123 72.8157 62.6999 73.1347 62.6999C73.5024 62.6999 73.7825 62.5708 73.9749 62.3123C74.1674 62.0541 74.2637 61.7289 74.2637 61.3369C74.2637 60.952 74.1734 60.627 73.9932 60.3616C73.8127 60.0964 73.5319 59.9637 73.1503 59.9637C72.9701 59.9637 72.8141 59.9862 72.6823 60.0313C72.45 60.1146 72.2748 60.2689 72.1567 60.4943L70.8252 60.4319L71.3558 56.265H75.5121V57.5241H72.4274Z" fill="#F4F8FB"/>
<path d="M80.8869 58.814C81.5563 58.814 82.1052 59.0413 82.5333 59.4956C82.9617 59.9497 83.1758 60.5307 83.1758 61.2383C83.1758 61.9422 82.9661 62.5628 82.5463 63.1004C82.1268 63.638 81.4747 63.9068 80.5905 63.9068C79.6401 63.9068 78.9396 63.5096 78.4889 62.7155C78.1385 62.0948 77.9635 61.2937 77.9635 60.3121C77.9635 59.7366 77.9877 59.2683 78.0362 58.9076C78.1229 58.2661 78.2911 57.7321 78.5409 57.3054C78.756 56.9413 79.0377 56.6483 79.3862 56.4263C79.7347 56.2045 80.1518 56.0934 80.6373 56.0934C81.3377 56.0934 81.8961 56.2729 82.3123 56.6319C82.7285 56.9907 82.9625 57.4686 83.0145 58.065H81.5371C81.5371 57.9435 81.4903 57.8101 81.3967 57.6644C81.2371 57.4285 80.9961 57.3107 80.6736 57.3107C80.1917 57.3107 79.8482 57.5811 79.6437 58.1221C79.5326 58.4204 79.4563 58.8608 79.4148 59.4435C79.5986 59.2249 79.812 59.0655 80.0546 58.965C80.2975 58.8644 80.5747 58.814 80.8869 58.814ZM80.6112 62.6999C80.9407 62.6999 81.1999 62.576 81.389 62.3279C81.5779 62.0799 81.6725 61.7583 81.6725 61.3631C81.6725 60.9227 81.5649 60.5852 81.3499 60.3512C81.1349 60.1172 80.8713 60.0001 80.5591 60.0001C80.3061 60.0001 80.0825 60.0764 79.8881 60.2291C79.5969 60.4544 79.4513 60.8185 79.4513 61.3213C79.4513 61.7271 79.5605 62.0583 79.7789 62.3149C79.9975 62.5717 80.2749 62.6999 80.6112 62.6999Z" fill="#F4F8FB"/>
<path d="M26.0774 37.7175C22.8327 37.7175 20.1975 40.3527 20.1975 43.5975V49.8001C20.1975 50.241 20.559 50.599 21 50.595C21.0304 50.5947 21.0563 50.5846 21.0825 50.5801C21.0952 50.5801 21.1073 50.5801 21.12 50.5801C26.3078 50.6007 30.51 54.8134 30.51 60.0001C30.51 65.1824 26.3138 69.3956 21.1275 69.4201C21.0859 69.4148 21.041 69.4054 21 69.4052C20.5589 69.4011 20.1975 69.7592 20.1975 70.2001V76.4026C20.1975 79.6474 22.8327 82.2826 26.0774 82.2826H93.9226C97.1674 82.2826 99.8026 79.6474 99.8026 76.4026V70.2001C99.8026 69.7602 99.4548 69.4026 99.0149 69.4052C98.9916 69.4052 98.9738 69.4167 98.9549 69.4201C98.9482 69.4213 98.9393 69.4184 98.9325 69.4201C98.9299 69.4201 98.9275 69.4201 98.9251 69.4201C93.7325 69.4038 89.5274 65.1884 89.5274 60.0001C89.5274 54.8168 93.7245 50.6046 98.91 50.5801C98.9167 50.582 98.9258 50.5786 98.9325 50.5801C98.958 50.5858 98.9854 50.595 99.0149 50.595C99.4548 50.5976 99.8026 50.24 99.8026 49.8001V43.5975C99.8026 40.3527 97.1674 37.7175 93.9226 37.7175C93.8318 37.7175 26.3095 37.7175 26.0774 37.7175ZM26.0774 39.3001C26.1682 39.3001 93.6905 39.3001 93.9226 39.3001C96.2887 39.3001 98.2125 41.2266 98.2125 43.5975V49.0875C92.4571 49.4775 87.9374 54.207 87.9374 60.0001C87.9374 65.7932 92.4571 70.5226 98.2125 70.9126V76.4026C98.2125 78.7736 96.2887 80.7001 93.9226 80.7001H26.0774C23.7112 80.7001 21.7875 78.7736 21.7875 76.4026V70.9126C27.5587 70.5402 32.1 65.8064 32.1 60.0001C32.1 54.1938 27.5587 49.46 21.7875 49.0875V43.5975C21.7875 41.2266 23.7112 39.3001 26.0774 39.3001Z" fill="#00437A"/>
<path d="M31.2974 72.4052C25.2149 72.3848 20.2704 77.3029 20.25 83.3927C20.2296 89.4841 25.1417 94.4423 31.2226 94.4627C37.3032 94.4828 42.257 89.5592 42.2774 83.4675C42.2978 77.378 37.3802 72.4254 31.2974 72.4052ZM31.29 74.0627C36.4519 74.0799 40.6298 78.2879 40.6126 83.4601C40.5953 88.6323 36.3919 92.8148 31.23 92.7975C26.0681 92.7803 21.8977 88.5723 21.915 83.4001C21.9323 78.2279 26.1281 74.0454 31.29 74.0627Z" fill="#004279"/>
<path d="M21.5622 83.4035C21.5801 78.0364 25.9375 73.6998 31.2946 73.7178C36.6519 73.7356 40.98 78.1012 40.962 83.4683C40.9443 88.8357 36.5868 93.172 31.2298 93.1542C25.8725 93.1362 21.5442 88.7706 21.5622 83.4035Z" fill="#3375AF"/>
<path d="M31.291 74.7933C26.5262 74.7772 22.646 78.6277 22.6301 83.4016C22.6141 88.1754 26.4684 92.0627 31.2334 92.0788C35.9981 92.0946 39.8782 88.233 39.8942 83.4592C39.9101 78.6853 36.0559 74.8091 31.291 74.7933ZM31.2878 75.7233C35.5366 75.7374 38.969 79.1997 38.9549 83.4561C38.9405 87.7127 35.485 91.1517 31.2365 91.1375C26.9878 91.1233 23.5553 87.6611 23.5696 83.4047C23.5838 79.1481 27.0394 75.7091 31.2878 75.7233Z" fill="#004279"/>
<path d="M31.2883 75.6263C26.9827 75.6119 23.4766 79.0911 23.4622 83.4049C23.4478 87.7184 26.9304 91.2311 31.236 91.2455C35.5416 91.2599 39.0477 87.7705 39.0621 83.457C39.0765 79.1432 35.5937 75.6407 31.2883 75.6263ZM31.2854 76.4667C35.1245 76.4795 38.226 79.6079 38.2133 83.4541C38.2003 87.3003 35.0779 90.4079 31.2389 90.3949C27.3998 90.3822 24.2983 87.2538 24.311 83.4075C24.324 79.5615 27.4464 76.454 31.2854 76.4667Z" fill="#004279"/>
<path d="M23.7736 83.411C23.7875 79.2674 27.1514 75.9196 31.2871 75.9333C35.423 75.9472 38.7646 79.3173 38.7506 83.4609C38.7367 87.6045 35.3729 90.9525 31.237 90.9386C27.1013 90.9246 23.7598 87.5546 23.7736 83.411Z" fill="#FF8F50"/>
<path d="M34.6788 88.2887L27.8131 88.2659C27.0019 88.263 26.3441 87.5994 26.3467 86.7868L26.3647 81.3822L27.3456 81.3856L27.3276 86.7901C27.3266 87.0613 27.5462 87.2821 27.8165 87.2831L34.6822 87.3061C34.9529 87.3069 35.1732 87.0875 35.1742 86.8163L35.1775 85.8337L36.1584 85.8371L36.155 86.8197C36.1524 87.6323 35.49 88.2913 34.6788 88.2887ZM33.5712 83.2276L32.88 82.5306L34.5005 80.9181L32.891 79.2947L33.5868 78.6023L35.8874 80.9226L33.5712 83.2276Z" fill="#F4F8FB"/>
<path d="M29.2908 86.3053L28.3102 86.3019L28.3116 85.8107C28.3217 82.8308 30.75 80.4143 33.7243 80.4241L35.1955 80.4289L35.1922 81.4117L33.7209 81.4067C31.2871 81.3985 29.3006 83.3756 29.2925 85.814L29.2908 86.3053Z" fill="#F4F8FB"/>
<path d="M93.6458 18.463L76.4467 22.9001L79.8031 26.4465L79.4321 30.2827L83.027 29.3736L85.2082 31.18L93.6458 18.463Z" fill="#3375AF"/>
<path d="M93.4949 17.8725L76.2974 22.305C76.0872 22.3594 75.9149 22.5237 75.8549 22.7325C75.7953 22.9411 75.8558 23.1676 76.0051 23.325L79.17 26.6626L78.8251 30.2251C78.8052 30.4234 78.8827 30.6199 79.0349 30.75C79.1093 30.8139 79.194 30.8551 79.29 30.8775C79.3833 30.8993 79.4815 30.8995 79.5749 30.8775L82.8749 30.0451L84.8174 31.65C84.9513 31.7604 85.1261 31.8096 85.2974 31.7851C85.4712 31.759 85.6214 31.6601 85.7174 31.5149L94.1549 18.8025C94.2955 18.5905 94.2953 18.3119 94.1474 18.105C93.9998 17.8983 93.7409 17.8088 93.4949 17.8725ZM93.4051 18.63L85.1851 31.02L83.1974 29.3775C83.1091 29.3043 82.9862 29.2745 82.8749 29.3026L79.5525 30.1426L79.8974 26.5726C79.9075 26.4689 79.8715 26.3631 79.8 26.2875L76.6425 22.9575L93.4051 18.63ZM92.9774 18.525C92.8514 18.5576 76.9637 22.655 76.8374 22.6875C76.5722 22.7559 76.4767 23.0885 76.6651 23.2875L79.6874 26.4826L79.3574 29.9175C79.3334 30.1654 79.5662 30.361 79.8074 30.3L83.0025 29.49L84.9225 31.08C85.0872 31.2163 85.3368 31.183 85.4549 31.0051L93.3674 19.0725C93.5498 18.7978 93.2969 18.4426 92.9774 18.525ZM92.25 19.455L85.0725 30.2775L83.4149 28.9051C83.2641 28.7803 83.0642 28.7295 82.8749 28.7775L80.13 29.4749L80.4149 26.5051C80.4321 26.3287 80.3717 26.1538 80.25 26.0251L77.61 23.235C78.7346 22.9449 90.6185 19.876 92.25 19.455Z" fill="#00437A"/>
<path d="M79.7006 30.1229L81.5405 27.8402L93.5969 18.674L80.0165 26.3061L79.7006 30.1229Z" fill="#FF8F50"/>
<path d="M79.6716 30.2463C79.6536 30.242 79.6363 30.2338 79.621 30.2216C79.5665 30.1776 79.5578 30.098 79.602 30.0435L81.4421 27.7608C81.4486 27.7529 81.456 27.7457 81.4639 27.7392L92.1307 19.6294L79.9027 26.3931C79.8415 26.4269 79.7645 26.4048 79.7304 26.3436C79.6966 26.2822 79.7189 26.2054 79.7801 26.1713L93.5352 18.563C93.5935 18.5311 93.6665 18.549 93.7027 18.6047C93.7387 18.6605 93.726 18.7347 93.6732 18.7747L81.6295 27.932L79.799 30.2026C79.7676 30.2415 79.7174 30.2568 79.6716 30.2463Z" fill="#00437A"/>
<path d="M83.1357 29.5289C83.1144 29.5241 83.0938 29.5133 83.0767 29.4967L81.4526 27.9315C81.4022 27.8827 81.4008 27.8026 81.4493 27.7522C81.4978 27.702 81.5782 27.7006 81.6283 27.7488L83.2524 29.3143C83.3028 29.3628 83.3042 29.443 83.256 29.4934C83.2236 29.5267 83.1777 29.5387 83.1357 29.5289ZM81.1202 25.5377C80.9482 26.6155 80.7763 27.6931 80.6042 28.771C80.5788 28.9308 80.8253 28.9894 80.8509 28.8281C81.023 27.7505 81.1949 26.6729 81.3669 25.5951C81.3926 25.4352 81.1459 25.3767 81.1202 25.5377ZM82.2309 24.9411C82.1217 25.746 82.0128 26.5507 81.9034 27.3557C81.8818 27.5158 82.1282 27.5746 82.1501 27.4131C82.2593 26.6081 82.3682 25.8034 82.4777 24.9982C82.4995 24.8383 82.2528 24.7795 82.2309 24.9411ZM83.2509 24.4654C83.1965 25.1503 83.142 25.8358 83.0873 26.521C83.0745 26.6827 83.3278 26.6717 83.3405 26.5107C83.395 25.8255 83.4494 25.14 83.5041 24.4551C83.5171 24.2928 83.2637 24.3043 83.2509 24.4654ZM84.3406 23.8043C84.3058 24.4361 84.2712 25.0675 84.2369 25.6995C84.2277 25.8619 84.4809 25.8511 84.4898 25.6889C84.5244 25.0572 84.5592 24.4258 84.5935 23.794C84.6024 23.6317 84.3492 23.6426 84.3406 23.8043ZM85.5406 23.0871C85.4849 23.6591 85.4294 24.2314 85.3737 24.8035C85.3581 24.9634 85.6046 25.0227 85.6205 24.8609C85.6762 24.2887 85.7316 23.7164 85.7873 23.1444C85.8026 22.9847 85.5564 22.9252 85.5406 23.0871ZM86.8085 22.3825C86.7554 22.8532 86.7156 23.3255 86.6623 23.7964C86.6445 23.9566 86.891 24.0156 86.909 23.8537C86.9621 23.383 87.0019 22.9107 87.0549 22.4398C87.073 22.2796 86.8265 22.2206 86.8085 22.3825ZM87.983 21.7311C87.9415 22.1016 87.9002 22.4721 87.859 22.8428C87.841 23.0027 88.0874 23.062 88.1054 22.9001C88.1469 22.5296 88.1882 22.1591 88.2295 21.7884C88.2473 21.6285 88.001 21.5692 87.983 21.7311ZM89.3378 21.0231C89.3201 21.2922 89.3025 21.5616 89.2848 21.8307C89.274 21.993 89.5272 21.9819 89.5378 21.8203C89.5555 21.5512 89.573 21.2818 89.5908 21.0127C89.6016 20.8506 89.3484 20.8615 89.3378 21.0231ZM76.2434 30.5503C75.1886 30.1776 74.3102 29.4319 73.9387 28.3529C73.703 27.6687 73.8653 26.7135 74.7665 26.9223C75.5748 27.1095 75.7574 27.8791 75.7411 28.5905C75.6929 30.7063 74.2574 32.7274 72.1322 33.1438C71.9726 33.1752 72.0485 33.4169 72.2074 33.3857C73.6601 33.1011 74.8437 32.0844 75.4716 30.7577C75.9439 29.7603 76.4649 27.8155 75.4413 26.965C74.5711 26.2414 73.4206 26.7228 73.5605 27.8712C73.7342 29.2932 74.9021 30.3432 76.1861 30.7968C76.3394 30.8511 76.3953 30.6041 76.2434 30.5503Z" fill="#00437A"/>
<path d="M77.2601 30.8203C77.0222 30.7689 76.7858 30.7063 76.5511 30.6427C76.3937 30.5997 76.3365 30.8465 76.4937 30.8892C76.7285 30.953 76.9649 31.0159 77.2027 31.067C77.3621 31.1013 77.4197 30.8549 77.2601 30.8203ZM78.4999 30.7769C78.203 30.7968 77.9064 30.8025 77.609 30.7898C77.4463 30.7829 77.4571 31.0361 77.6193 31.0428C77.9167 31.0555 78.2133 31.0497 78.5102 31.0298C78.6725 31.0193 78.6631 30.7658 78.4999 30.7769Z" fill="#00437A"/>
</svg>
