<svg width="120" height="120" viewBox="0 0 120 120" fill="none" xmlns="http://www.w3.org/2000/svg">
<path d="M8.76831 39.164C8.76831 23.0959 21.794 10.0702 37.8619 10.0702H82.1381C98.2061 10.0702 111.232 23.0959 111.232 39.164V80.8361C111.232 96.9041 98.2061 109.93 82.1381 109.93H37.8619C21.794 109.93 8.76831 96.9041 8.76831 80.8361V39.164Z" fill="#F4F8FB"/>
<path d="M44.1809 99.2907L44.9717 100.082L46.7719 98.2813L45.9811 97.4905L44.1809 99.2907Z" fill="#F87304"/>
<path d="M47.1768 96.295L47.9674 97.0856L49.7676 95.2853L48.9771 94.4948L47.1768 96.295Z" fill="#F87304"/>
<path d="M48.9771 100.082L49.7676 99.2907L47.9674 97.4905L47.1768 98.2813L48.9771 100.082Z" fill="#F87304"/>
<path d="M45.9811 97.0856L46.7719 96.295L44.9717 94.4948L44.1809 95.2853L45.9811 97.0856Z" fill="#F87304"/>
<path d="M96.7284 42.9947L97.519 43.7853L99.3192 41.985L98.5286 41.1945L96.7284 42.9947Z" fill="#F87304"/>
<path d="M99.7241 39.9987L100.515 40.7895L102.315 38.9893L101.524 38.1985L99.7241 39.9987Z" fill="#F87304"/>
<path d="M101.524 43.7853L102.315 42.9947L100.515 41.1945L99.7241 41.985L101.524 43.7853Z" fill="#F87304"/>
<path d="M98.5286 40.7895L99.3192 39.9987L97.519 38.1985L96.7284 38.9893L98.5286 40.7895Z" fill="#F87304"/>
<path d="M17.5862 38.9425L18.3769 39.7333L20.1771 37.933L19.3865 37.1425L17.5862 38.9425Z" fill="#F87304"/>
<path d="M20.5821 35.9467L21.3728 36.7373L23.173 34.9373L22.3823 34.1465L20.5821 35.9467Z" fill="#F87304"/>
<path d="M22.3823 39.7333L23.173 38.9425L21.3728 37.1425L20.5821 37.933L22.3823 39.7333Z" fill="#F87304"/>
<path d="M19.3865 36.7373L20.1771 35.9467L18.3769 34.1465L17.5862 34.9373L19.3865 36.7373Z" fill="#F87304"/>
<path d="M49.2852 42.007C46.693 46.7067 56.8436 53.1265 56.8436 53.1265L58.0306 52.4725C56.892 51.673 50.0847 46.8037 51.3684 43.388C52.6282 39.9963 56.9405 40.7958 58.2728 44.042C59.4356 46.9006 60.4532 50.2678 60.4047 51.1642L61.4463 50.583C61.4463 50.583 62.27 46.5858 60.4532 42.104C58.6119 37.598 51.7078 37.598 49.2852 42.007Z" fill="#FF6302"/>
<path d="M55.1105 38.3302C52.747 38.3094 50.3067 39.4609 49.0335 41.7781C48.4717 42.7966 48.4357 43.929 48.8607 45.1443C49.4247 46.7569 50.7649 48.457 52.6544 50.1752C53.5359 50.9768 54.4856 51.7292 55.429 52.4132C55.7593 52.6525 56.0631 52.8646 56.3389 53.0499C56.4353 53.115 56.8301 53.3775 56.8301 53.3775L58.5769 52.4132L58.1945 52.1401C57.6704 51.7722 57.134 51.3733 56.5117 50.8758C55.5973 50.1445 54.7431 49.3885 54.0008 48.6195C52.0323 46.5802 51.1294 44.7678 51.6445 43.3976C52.759 40.3964 56.7104 40.911 58.0035 44.0617C59.161 46.9069 60.1589 50.2302 60.1143 51.0577L60.0869 51.5852L61.7062 50.6845C61.7062 50.6845 61.747 50.4596 61.7609 50.3754C61.7835 50.2369 61.8037 50.0749 61.8245 49.8932C62.0986 47.5112 61.8653 44.7212 60.7237 41.9055C59.7589 39.5437 57.4743 38.3511 55.1105 38.3302ZM55.0834 38.9125C57.2372 38.9252 59.3182 39.9978 60.187 42.1239C61.2872 44.8376 61.5152 47.5366 61.2514 49.8294C61.2315 50.0019 61.2089 50.1548 61.1878 50.2844C61.1861 50.2935 61.1893 50.294 61.1878 50.3024L60.6327 50.6118C60.4832 49.3309 59.6045 46.4595 58.5404 43.8433C57.0641 40.2466 52.4185 39.6438 51.0987 43.1974C50.4773 44.8501 51.4693 46.8308 53.5822 49.0198C54.3437 49.8085 55.2152 50.5849 56.1478 51.3306C56.6468 51.7297 57.0747 52.041 57.5033 52.3494L56.8573 52.6952C56.7814 52.6455 56.7195 52.6035 56.6662 52.5678C56.3962 52.3863 56.0902 52.1751 55.7657 51.9402C54.8384 51.2679 53.9098 50.5335 53.0456 49.7475C51.2216 48.0889 49.9316 46.4542 49.4065 44.9533C49.033 43.8853 49.0671 42.9229 49.543 42.0601C50.7025 39.95 52.9294 38.8998 55.0834 38.9125Z" fill="#003B74"/>
<path d="M72.8566 43.1697C75.1822 48.4267 66.2672 55.7913 66.2672 55.7913L65.2256 55.0643C66.2187 54.1682 72.1781 48.5721 71.0396 44.7443C69.901 40.9411 66.0977 41.9099 64.9589 45.568C63.9658 48.8143 63.0937 52.6178 63.1421 53.6109L62.2215 52.9811C62.2215 52.9811 61.4705 48.4751 63.0209 43.4121C64.5713 38.3488 70.7005 38.2521 72.8566 43.1697Z" fill="#FF6302"/>
<path d="M67.6926 39.167C65.5842 39.2186 63.5566 40.578 62.7435 43.2336C61.7823 46.3723 61.5934 49.4892 61.8428 52.1582C61.863 52.375 61.8846 52.5665 61.9064 52.7314C61.9196 52.8314 61.952 53.059 61.952 53.059L63.4621 54.096L63.4347 53.5046C63.3894 52.5744 64.2366 48.8292 65.2362 45.5626C66.3447 42.001 69.7539 41.3798 70.7583 44.7348C71.2285 46.3152 70.4358 48.3958 68.7022 50.7391C67.5548 52.2902 66.1868 53.7134 65.0269 54.7601L64.7631 55.0058L66.2823 56.0702C66.2823 56.0702 66.4976 55.8946 66.537 55.861C66.602 55.8058 66.6709 55.735 66.7554 55.6608C66.9966 55.4494 67.267 55.206 67.556 54.9331C68.3809 54.1536 69.2053 53.2968 69.9759 52.3858C71.5719 50.4989 72.7263 48.6401 73.2418 46.8818C73.6602 45.4548 73.6426 44.1338 73.1238 42.9607C71.9893 40.373 69.8007 39.1157 67.6926 39.167ZM67.7197 39.7493C69.6022 39.7078 71.558 40.8506 72.5869 43.1974C73.0453 44.2334 73.0599 45.4145 72.6778 46.7179C72.1894 48.3845 71.0782 50.1826 69.5302 52.0128C68.7747 52.9058 67.9659 53.7492 67.1557 54.5146C66.8722 54.7824 66.6092 55.0174 66.3733 55.2242C66.3392 55.2542 66.3078 55.2881 66.255 55.3334L65.6818 54.9331C66.8098 53.8894 68.0734 52.5622 69.1662 51.0847C70.9995 48.6065 71.8602 46.379 71.3223 44.5711C70.1286 40.5835 65.9415 41.3407 64.6813 45.3898C63.7695 48.3691 63.0291 51.5942 62.9072 53.0045L62.4886 52.7134C62.4855 52.6908 62.4834 52.6867 62.4795 52.6586C62.4589 52.501 62.4445 52.3128 62.425 52.1038C62.1822 49.5043 62.3622 46.4635 63.2984 43.4066C64.0304 41.016 65.8374 39.791 67.7197 39.7493Z" fill="#003B74"/>
<path d="M42.381 55.3553C46.887 60.1034 58.5152 50.8735 58.5152 50.8735L58.2001 49.2746C56.8194 50.292 48.4859 56.0578 44.8278 53.514C43.6165 52.6661 45.0699 46.4645 48.3647 45.8347C52.1439 45.1078 57.2312 45.5196 62.5607 51.576L61.8582 47.7C61.8582 47.7 52.9434 42.2251 46.9597 42.5885C40.9518 42.9276 38.1659 50.8978 42.381 55.3553Z" fill="#FF8F50"/>
<path d="M46.941 42.2057C40.7031 42.5578 37.7768 50.8198 42.1741 55.4698C43.821 57.2054 46.4154 57.3089 49.6702 56.1703C51.1503 55.6526 52.7202 54.8899 54.3282 53.9506C55.4295 53.3071 56.4769 52.6198 57.4486 51.931C57.789 51.6895 58.101 51.468 58.3676 51.2666C58.461 51.1961 58.8315 50.9028 58.8315 50.9028L58.3947 48.6739L58.0309 48.9468C56.5544 50.035 54.3798 51.3926 52.245 52.3766C49.0491 53.8498 46.5013 54.2342 44.9943 53.1864C44.5496 52.8751 44.5849 51.2465 45.1762 49.602C45.8658 47.6839 47.0478 46.2878 48.4148 46.0265C53.2796 45.091 57.8245 46.5413 62.3432 51.6761L63.0346 52.4676L62.1248 47.4276C62.1248 47.4276 61.7396 47.1984 61.6335 47.1365C61.3314 46.9598 60.9822 46.7659 60.5965 46.5542C59.4951 45.9499 58.3042 45.3444 57.0574 44.7802C55.2536 43.9639 53.4932 43.3046 51.8355 42.8515C50.0108 42.353 48.3658 42.119 46.941 42.2057ZM46.9774 42.7879C48.332 42.7056 49.9126 42.9233 51.681 43.4066C53.3058 43.8506 55.0431 44.5032 56.821 45.3079C58.0532 45.8657 59.2345 46.4662 60.3236 47.0638C60.7045 47.2728 61.0446 47.4629 61.3424 47.6369C61.4125 47.6777 61.5032 47.7317 61.5879 47.7823L62.0974 50.5934C57.6562 45.9024 53.1231 44.5361 48.3056 45.4625C46.6942 45.7706 45.3822 47.3102 44.6302 49.4018C43.9554 51.2794 43.9088 53.1353 44.6576 53.6594C46.3918 54.8654 49.1206 54.4577 52.4905 52.9044C54.5115 51.9727 56.5074 50.7372 57.9946 49.6747L58.1946 50.6573C58.1218 50.7135 58.0657 50.7626 58.0126 50.8027C57.7506 51.0007 57.4474 51.2201 57.1122 51.4579C56.1534 52.1374 55.1134 52.8161 54.0279 53.4502C52.4497 54.3722 50.9199 55.1206 49.4792 55.6246C46.417 56.6954 44.0434 56.5985 42.5924 55.0694C38.5268 50.7703 41.2462 43.1114 46.9774 42.7879Z" fill="#003B74"/>
<path d="M56.2863 33.0921C50.8115 36.7015 57.9095 49.7592 57.9095 49.7592L59.5568 49.7349C58.8059 48.1845 54.3968 38.8092 57.7158 35.8296C61.0103 32.8497 65.1529 36.3381 64.6683 40.6505C64.2323 44.478 63.3843 48.7658 62.8273 49.7107L64.2565 49.6865C64.2565 49.6865 67.4543 45.7862 68.1083 39.8268C68.7625 33.8673 61.3979 29.7247 56.2863 33.0921Z" fill="#F87304"/>
<path d="M60.3872 31.507C58.934 31.4983 57.4611 31.8855 56.1296 32.7624C53.9442 34.2034 53.4781 37.0807 54.301 40.9411C54.6253 42.4632 55.1403 44.0808 55.7929 45.7354C56.2002 46.7676 56.6305 47.7523 57.0666 48.6557C57.2194 48.9723 57.3666 49.2547 57.4943 49.5019C57.5389 49.5886 57.7398 49.9659 57.7398 49.9659L60.0143 49.9294L59.8232 49.5199C59.4891 48.8304 59.1344 48.0473 58.7588 47.1274C58.2092 45.7824 57.7398 44.4389 57.3942 43.1518C56.4738 39.7239 56.5537 37.1758 57.9126 35.9556C60.8658 33.2849 64.8586 36.2801 64.381 40.5317C63.9399 44.4041 63.0954 48.6 62.5796 49.4746L62.3158 49.9203L64.3993 49.884C64.3993 49.884 64.5034 49.7499 64.5265 49.7201C64.5644 49.6719 64.6141 49.6133 64.663 49.5473C64.8018 49.3601 64.952 49.1443 65.1179 48.8923C65.5902 48.1747 66.0606 47.3412 66.5007 46.4088C67.4598 44.3767 68.1406 42.1495 68.402 39.7675C68.912 35.1214 64.7468 31.5331 60.3872 31.507ZM60.3872 32.0892C64.4245 32.1156 68.2885 35.4339 67.8198 39.7039C67.5658 42.0175 66.9058 44.1867 65.973 46.1631C65.545 47.0698 65.0934 47.8695 64.6357 48.5647C64.4761 48.8074 64.3225 49.0231 64.19 49.2017C64.1526 49.2519 64.1434 49.2675 64.117 49.3018L63.2437 49.32C63.8079 47.9374 64.5416 44.2155 64.9542 40.5953C65.4855 35.8663 60.925 32.4499 57.5214 35.5282C55.9429 36.9454 55.857 39.6814 56.8302 43.3066C57.1825 44.6196 57.6548 45.9797 58.2128 47.3458C58.5296 48.1212 58.826 48.7565 59.1135 49.3654L58.0856 49.3745C58.0544 49.3155 58.0333 49.2778 58.0126 49.2379C57.8876 48.9953 57.7448 48.7128 57.5943 48.4011C57.164 47.5099 56.7313 46.5351 56.3298 45.5172C55.688 43.8903 55.1821 42.301 54.8651 40.8137C54.0867 37.1626 54.519 34.5163 56.4479 33.2446C57.6788 32.4336 59.0413 32.0806 60.3872 32.0892Z" fill="#003B74"/>
<path d="M81.0447 53.6351C77.4351 59.11 64.3776 52.012 64.3776 52.012L64.4019 50.3647C65.9523 51.1156 75.158 55.3552 78.3072 52.2059C79.3489 51.1399 76.8538 45.3016 73.4864 45.2531C69.6346 45.1804 64.6925 46.4887 60.5016 53.3687L60.5259 49.42C60.5259 49.42 68.3506 42.4672 74.31 41.8132C80.2937 41.159 84.4121 48.4994 81.0447 53.6351Z" fill="#FF6302"/>
<path d="M75.4162 41.405C75.044 41.3853 74.6674 41.3899 74.2791 41.4324C73.1573 41.5555 71.9341 41.8956 70.6217 42.4332C68.972 43.1088 67.2207 44.0822 65.4272 45.2623C64.1468 46.1049 62.9223 47.0073 61.7881 47.9097C61.3911 48.2256 61.0352 48.5196 60.7237 48.7831C60.6145 48.8755 60.2324 49.2016 60.2324 49.2016L60.2053 54.3235L60.751 53.4319C64.3093 47.5908 68.5438 45.3602 73.4785 45.4533C74.8781 45.4735 76.2891 46.6346 77.2995 48.401C78.1664 49.9168 78.4863 51.5174 78.0999 51.9127C76.8056 53.207 74.2349 53.2723 70.831 52.3766C68.5697 51.7816 66.2996 50.8701 64.5265 50.0112L64.117 49.811L64.0808 52.0946C64.0808 52.0946 64.4581 52.2955 64.5447 52.3401C64.7919 52.4678 65.0744 52.606 65.3907 52.7587C66.2943 53.195 67.279 53.6342 68.311 54.0415C69.9656 54.694 71.5832 55.2091 73.1055 55.5333C76.9657 56.3563 79.8433 55.8904 81.284 53.7048C84.5741 48.6868 80.9979 41.6995 75.4162 41.405ZM75.3889 41.9872C80.5241 42.2649 83.845 48.7449 80.8018 53.3865C79.5303 55.3154 76.8838 55.7385 73.2327 54.9602C71.7454 54.6434 70.1561 54.1372 68.5294 53.4957C67.5116 53.094 66.5367 52.6704 65.6456 52.24C65.3338 52.0896 65.0605 51.9468 64.8176 51.8217C64.7768 51.8006 64.7324 51.7807 64.6721 51.749L64.6813 50.7208C66.4229 51.5397 68.5294 52.3756 70.6765 52.9406C74.2664 53.8852 77.0168 53.8147 78.5093 52.3221C79.153 51.6636 78.788 49.8376 77.7997 48.1099C76.6978 46.1834 75.1345 44.8948 73.4876 44.8711C68.6017 44.7789 64.3565 46.9243 60.7966 52.313L60.8146 49.4654C60.8984 49.3929 61.0169 49.2873 61.0969 49.2199C61.4038 48.96 61.7597 48.6768 62.1521 48.3645C63.2732 47.4724 64.4809 46.5768 65.7457 45.7444C67.5101 44.5833 69.229 43.6389 70.8401 42.9789C72.1057 42.4605 73.2805 42.1312 74.3427 42.0146C74.6998 41.9755 75.0466 41.9688 75.3889 41.9872Z" fill="#003B74"/>
<path d="M88.2219 55.2946H34.3787C33.4599 55.2946 32.701 56.0537 32.701 56.9722V87.1291C32.701 88.0478 33.4599 88.8067 34.3787 88.8067H61.2404H61.3602H88.2219C89.1407 88.8067 89.8995 88.0478 89.8995 87.1291V56.9722C89.8995 56.0335 89.1407 55.2946 88.2219 55.2946Z" fill="#3375AF"/>
<path d="M34.3815 54.8669C33.2278 54.8669 32.2714 55.8147 32.2714 56.9686V87.1311C32.2714 88.285 33.2278 89.2328 34.3815 89.2328H88.219C89.3727 89.2328 90.3293 88.285 90.3293 87.1311V56.9686C90.3293 55.801 89.3789 54.8669 88.219 54.8669H34.3815ZM34.3815 55.7216H88.219C88.9105 55.7216 89.4747 56.2726 89.4747 56.9686V87.1311C89.4747 87.8149 88.9025 88.3781 88.219 88.3781H34.3815C33.698 88.3781 33.1258 87.8149 33.1258 87.1311V56.9686C33.1258 56.2849 33.698 55.7216 34.3815 55.7216Z" fill="#003B74"/>
<path d="M88.2219 55.2946H61.3602V88.8067H88.2219C89.1406 88.8067 89.8995 88.0478 89.8995 87.1291V56.9722C89.8995 56.0335 89.1406 55.2946 88.2219 55.2946Z" fill="#143B5A"/>
<path d="M90.0594 53.3575L61.3602 47.8853V47.8654L61.3004 47.8853L61.2404 47.8654V47.8853L32.5414 53.3575C31.5627 53.3575 30.7438 54.1562 30.7438 55.1549V60.4274C30.7438 61.4059 31.5428 62.2248 32.5414 62.2248L61.3004 56.7326L90.0594 62.2248C91.0378 62.2248 91.8567 61.4258 91.8567 60.4274V55.1549C91.8368 54.1562 91.0378 53.3575 90.0594 53.3575Z" fill="#003B74"/>
<path d="M91.8368 59.4487C91.8368 60.4274 91.8965 61.306 91.1777 61.246L61.2205 55.7539V46.8866L90.0593 52.3788C91.0378 52.3788 91.8567 53.1777 91.8567 54.1761V59.4487H91.8368Z" fill="#143B5A"/>
<path d="M30.764 54.1761C30.764 53.1777 31.5627 52.3788 32.5614 52.3788L61.3602 46.8866V55.7539L31.2831 61.4659C30.7438 61.4659 30.7438 60.4274 30.7438 59.4487V54.1761H30.764Z" fill="#3375AF"/>
<path d="M61.2653 46.8888L32.4632 52.2041L32.5592 52.1954C31.3217 52.1954 30.3493 53.1329 30.2833 54.3132C30.271 54.3552 30.2309 54.3854 30.2309 54.4313C30.2309 54.4313 30.2307 59.6438 30.2309 59.6875C30.2319 60.3281 30.2571 60.6895 30.3267 61.0205C30.4472 61.5924 30.7369 61.9737 31.286 61.9737C31.3179 61.9737 31.3505 61.9711 31.382 61.9653L61.4573 56.4393C61.6981 56.3949 61.867 56.1955 61.867 55.9584V47.3781C61.867 47.0683 61.58 46.8307 61.2653 46.8888ZM60.8468 47.9688V55.5449L31.3731 60.9614C31.3573 60.9233 31.3361 60.8995 31.3208 60.8263C31.2694 60.5822 31.2521 60.2613 31.2512 59.6875C31.2509 59.645 31.2512 54.6048 31.2512 54.4903C31.2543 54.4677 31.2773 54.4548 31.2773 54.4313C31.2773 53.7379 31.8425 53.1825 32.5592 53.1825C32.5911 53.1825 32.6235 53.1799 32.6549 53.1741L60.8468 47.9688Z" fill="#003B74"/>
<path d="M80.7325 88.3621H72.2247V58.7053L72.764 57.8953L81.3318 59.4759L80.7325 60.2662V88.3621Z" fill="#D16104"/>
<path d="M72.2247 58.7053L72.764 57.8953L81.3318 59.4759L80.7325 60.2662L72.2247 58.7053Z" fill="#9D4802"/>
<path d="M81.3318 50.6835L72.764 49.0436V57.8953L81.3318 59.4759V50.6835Z" fill="#D16104"/>
<path d="M41.4886 88.362H49.9964V58.6831L49.4948 57.5995L40.927 59.1835L41.4886 60.2671V88.362Z" fill="#FF8F50"/>
<path d="M49.6349 57.3319L40.5675 59.0042L41.2501 60.3319C41.2501 60.683 41.2501 88.5994 41.2501 88.5994H50.2349V58.6294L49.6349 57.3319ZM49.3501 57.8719L49.7549 58.7419V88.1194H41.7301C41.7301 87.4373 41.7301 60.2119 41.7301 60.2119L41.2875 59.3568L49.3501 57.8719Z" fill="#003B74"/>
<path d="M49.9964 58.6831L49.4907 57.5834L40.9229 59.1671L41.4886 60.2671L49.9964 58.6831Z" fill="#D16104"/>
<path d="M49.6275 57.3168L40.5601 58.9893L41.3549 60.5342L50.3401 58.8619L49.6275 57.3168ZM49.3501 57.8568L49.6501 58.5019C48.9041 58.6406 42.1575 59.9013 41.6175 60.0019L41.2801 59.3419L49.3501 57.8568Z" fill="#003B74"/>
<path d="M40.9095 51.5669L49.4972 49.9867L49.4772 57.5971L40.9095 59.195V51.5669Z" fill="#FF8F50"/>
<path d="M49.74 49.6968L40.6726 51.3693V59.4842L49.7175 57.7968L49.74 49.6968ZM49.26 50.2742L49.2375 57.3993L41.1526 58.9068C41.1526 58.2182 41.1526 52.3245 41.1526 51.7668L49.26 50.2742Z" fill="#003B74"/>
<path d="M49.3637 34.5869C49.5277 35.1428 48.8883 35.5868 48.4246 35.239L37.0561 26.7147C36.7304 26.4706 36.7354 25.9808 37.0659 25.7434L44.3763 20.4935C44.7133 20.2515 45.1882 20.4146 45.3056 20.8125L49.3637 34.5869Z" fill="#3375AF"/>
<path d="M44.6139 20.1465C44.4829 20.1639 44.3552 20.2139 44.2374 20.2985L36.9243 25.5463C36.4623 25.878 36.4556 26.5639 36.9106 26.9052L48.2802 35.4315C48.9286 35.9179 49.8246 35.2997 49.5954 34.5221C49.5637 34.4146 45.5684 20.8485 45.5367 20.7409C45.4136 20.3235 45.0073 20.0939 44.6139 20.1465ZM44.5198 20.6885C44.7224 20.5429 45.0068 20.6407 45.0774 20.8801C45.109 20.9877 49.1019 34.5466 49.1336 34.6541C49.2322 34.9887 48.8458 35.2575 48.567 35.0484L37.1974 26.5219C37.0016 26.3751 37.0081 26.0789 37.2068 25.9361L44.5198 20.6885Z" fill="#003B74"/>
<path d="M43.0304 39.3076C43.6628 39.3388 43.9745 38.3971 43.4964 37.8993L39.3963 33.6314C39.0826 33.305 38.5997 33.3964 38.3852 33.8229L36.3905 37.7887C36.1277 38.3109 36.4275 38.9801 36.9356 39.0052L43.0304 39.3076Z" fill="#FF8F50"/>
<path d="M38.8157 33.1339C38.5546 33.1834 38.3079 33.3554 38.1579 33.6535L36.1589 37.6207C35.7915 38.351 36.2149 39.2942 36.9253 39.3295C37.1156 39.3389 42.8314 39.6199 43.0217 39.6293C43.9061 39.6732 44.3398 38.3566 43.6714 37.6608L39.5737 33.3936C39.3545 33.1656 39.0771 33.0845 38.8157 33.1339ZM38.899 33.7634C39.0116 33.7421 39.1297 33.7752 39.224 33.8734L43.3217 38.1403C43.6093 38.4396 43.4189 39.0086 43.0385 38.9897C42.848 38.9803 37.1405 38.6995 36.9502 38.6899C36.6445 38.6748 36.4589 38.2646 36.6171 37.9505L38.6158 33.9833C38.6804 33.8551 38.7867 33.7848 38.899 33.7634Z" fill="#003B74"/>
<path d="M77.2621 38.1985C76.7214 38.6607 75.9306 38.0941 76.1708 37.4163L80.3684 25.5747C80.5299 25.119 81.0826 24.9618 81.4513 25.2668L86.3559 29.3276C86.6936 29.6072 86.6977 30.1326 86.3641 30.4177L77.2621 38.1985Z" fill="#FF8F50"/>
<path d="M81.205 24.849C80.7596 24.7606 80.2834 25.0035 80.114 25.4816L75.9128 37.3174C75.5768 38.2652 76.6858 39.0622 77.4421 38.4157C77.7265 38.1726 86.2556 30.8739 86.5402 30.6306C87.0063 30.2322 87.0039 29.5016 86.5316 29.1106L81.626 25.051C81.4971 24.9445 81.3534 24.8785 81.205 24.849ZM80.9043 25.4026C81.0272 25.3676 81.1714 25.3899 81.2823 25.4816L86.1793 29.5498C86.3825 29.7181 86.3886 30.0286 86.1879 30.2002C85.9035 30.4434 77.3742 37.742 77.0898 37.9851C76.7646 38.2633 76.2838 37.9184 76.4283 37.5106L80.6293 25.675C80.678 25.5378 80.7812 25.4374 80.9043 25.4026Z" fill="#003B74"/>
</svg>
