<svg width="150" height="150" viewBox="0 0 150 150" fill="none" xmlns="http://www.w3.org/2000/svg">
<g clip-path="url(#clip0_893_2658)">
<path d="M98.2991 107.445H48.1265C46.5163 107.445 45.211 106.139 45.211 104.529V42.543C45.211 40.9323 46.5163 39.6267 48.1265 39.6267H98.2991C99.9093 39.6267 101.215 40.9323 101.215 42.543V104.529C101.215 106.139 99.9093 107.445 98.2991 107.445Z" fill="#BAC4D3"/>
<path d="M91.2117 100.233L45.211 103.028V42.5796C45.211 40.9567 46.5285 39.6267 48.1631 39.6267H96.7987L93.9808 97.427C93.9076 98.9401 92.7121 100.136 91.2117 100.233Z" fill="white"/>
<path d="M79.1108 55.477H67.3148C66.7049 55.477 66.2047 54.9767 66.2047 54.3666C66.2047 53.7565 66.7049 53.2562 67.3148 53.2562H79.1108C79.7207 53.2562 80.2208 53.7565 80.2208 54.3666C80.2208 54.9767 79.7207 55.477 79.1108 55.477Z" fill="#FF610E"/>
<path d="M73.2189 62.847H57.007C56.3971 62.847 55.8969 62.3467 55.8969 61.7366C55.8969 61.1265 56.3971 60.6262 57.007 60.6262H73.2189C73.8288 60.6262 74.3289 61.1265 74.3289 61.7366C74.3167 62.3467 73.8288 62.847 73.2189 62.847Z" fill="#2C3D60"/>
<path d="M52.5789 62.847H51.1029C50.493 62.847 49.9929 62.3467 49.9929 61.7366C49.9929 61.1265 50.493 60.6262 51.1029 60.6262H52.5789C53.1889 60.6262 53.689 61.1265 53.689 61.7366C53.689 62.3467 53.1889 62.847 52.5789 62.847Z" fill="#FF610E"/>
<path d="M70.2668 70.2168H57.007C56.3971 70.2168 55.8969 69.7166 55.8969 69.1065C55.8969 68.4964 56.3971 67.9961 57.007 67.9961H70.2668C70.8767 67.9961 71.3769 68.4964 71.3769 69.1065C71.3769 69.7166 70.8767 70.2168 70.2668 70.2168Z" fill="#2C3D60"/>
<path d="M52.5789 70.2168H51.1029C50.493 70.2168 49.9929 69.7166 49.9929 69.1065C49.9929 68.4964 50.493 67.9961 51.1029 67.9961H52.5789C53.1889 67.9961 53.689 68.4964 53.689 69.1065C53.689 69.7166 53.1889 70.2168 52.5789 70.2168Z" fill="#FF610E"/>
<path d="M70.2668 77.5868H57.007C56.3971 77.5868 55.8969 77.0866 55.8969 76.4765C55.8969 75.8664 56.3971 75.3661 57.007 75.3661H70.2668C70.8767 75.3661 71.3769 75.8664 71.3769 76.4765C71.3769 77.0866 70.8767 77.5868 70.2668 77.5868Z" fill="#2C3D60"/>
<path d="M52.5789 77.5868H51.1029C50.493 77.5868 49.9929 77.0866 49.9929 76.4765C49.9929 75.8664 50.493 75.3661 51.1029 75.3661H52.5789C53.1889 75.3661 53.689 75.8664 53.689 76.4765C53.689 77.0866 53.1889 77.5868 52.5789 77.5868Z" fill="#FF610E"/>
<path d="M70.2668 84.9567H57.007C56.3971 84.9567 55.8969 84.4564 55.8969 83.8463C55.8969 83.2362 56.3971 82.736 57.007 82.736H70.2668C70.8767 82.736 71.3769 83.2362 71.3769 83.8463C71.3769 84.4686 70.8767 84.9567 70.2668 84.9567Z" fill="#2C3D60"/>
<path d="M52.5789 84.9567H51.1029C50.493 84.9567 49.9929 84.4564 49.9929 83.8463C49.9929 83.2362 50.493 82.736 51.1029 82.736H52.5789C53.1889 82.736 53.689 83.2362 53.689 83.8463C53.689 84.4686 53.1889 84.9567 52.5789 84.9567Z" fill="#FF610E"/>
<path d="M70.2668 92.3267H57.007C56.3971 92.3267 55.8969 91.8264 55.8969 91.2163C55.8969 90.6062 56.3971 90.106 57.007 90.106H70.2668C70.8767 90.106 71.3769 90.6062 71.3769 91.2163C71.3769 91.8386 70.8767 92.3267 70.2668 92.3267Z" fill="#2C3D60"/>
<path d="M52.5789 92.3267H51.1029C50.493 92.3267 49.9929 91.8264 49.9929 91.2163C49.9929 90.6062 50.493 90.106 51.1029 90.106H52.5789C53.1889 90.106 53.689 90.6062 53.689 91.2163C53.689 91.8386 53.1889 92.3267 52.5789 92.3267Z" fill="#FF610E"/>
<path d="M70.2668 99.7088H57.007C56.3971 99.7088 55.8969 99.2085 55.8969 98.5984C55.8969 97.9883 56.3971 97.488 57.007 97.488H70.2668C70.8767 97.488 71.3769 97.9883 71.3769 98.5984C71.3769 99.2085 70.8767 99.7088 70.2668 99.7088Z" fill="#2C3D60"/>
<path d="M52.5789 99.7088H51.1029C50.493 99.7088 49.9929 99.2085 49.9929 98.5984C49.9929 97.9883 50.493 97.488 51.1029 97.488H52.5789C53.1889 97.488 53.689 97.9883 53.689 98.5984C53.689 99.2085 53.1889 99.7088 52.5789 99.7088Z" fill="#FF610E"/>
<path d="M98.2991 107.445H48.1265C46.5163 107.445 45.211 106.139 45.211 104.529V42.543C45.211 40.9323 46.5163 39.6267 48.1265 39.6267H98.2991C99.9093 39.6267 101.215 40.9323 101.215 42.543V104.529C101.215 106.139 99.9093 107.445 98.2991 107.445Z" stroke="#00396C" stroke-width="1.1957" stroke-miterlimit="10" stroke-linecap="round" stroke-linejoin="round"/>
<path d="M83.5266 48.107H62.8989C60.6666 48.107 58.849 46.289 58.849 44.056V39.6267C58.849 39.0166 59.3491 38.5164 59.9591 38.5164H86.4787C87.0886 38.5164 87.5888 39.0166 87.5888 39.6267V44.0438C87.5888 46.289 85.7712 48.107 83.5266 48.107ZM61.0569 40.7371V44.056C61.0569 45.0688 61.8864 45.8985 62.8989 45.8985H83.5388C84.5513 45.8985 85.3808 45.0688 85.3808 44.056V40.7371H61.0569Z" fill="#FF610E"/>
<path d="M99.4092 97.6223C110.229 97.6223 119 88.6521 119 77.5868C119 66.5215 110.229 57.5513 99.4092 57.5513C88.5894 57.5513 79.8183 66.5215 79.8183 77.5868C79.8183 88.6521 88.5894 97.6223 99.4092 97.6223Z" fill="#00529A"/>
<path d="M99.4092 97.6223C110.229 97.6223 119 88.6521 119 77.5868C119 66.5215 110.229 57.5513 99.4092 57.5513C88.5894 57.5513 79.8183 66.5215 79.8183 77.5868C79.8183 88.6521 88.5894 97.6223 99.4092 97.6223Z" stroke="#00396C" stroke-width="1.1957" stroke-miterlimit="10"/>
<path d="M119 77.5868C119 88.6417 110.229 97.6223 99.4091 97.6223C96.9328 97.6223 94.5663 97.1586 92.3828 96.2923C91.4435 93.9495 90.9434 91.3871 90.9434 88.7027C90.9434 77.6478 99.7141 68.6672 110.534 68.6672C113.011 68.6672 115.377 69.1309 117.548 69.9972C118.488 72.34 119 74.9024 119 77.5868Z" fill="#00396C"/>
<path d="M99.4091 93.4981C108.006 93.4981 114.974 86.3743 114.974 77.5868C114.974 68.7993 108.006 61.6755 99.4091 61.6755C90.8126 61.6755 83.8438 68.7993 83.8438 77.5868C83.8438 86.3743 90.8126 93.4981 99.4091 93.4981Z" fill="#FF9051"/>
<path d="M99.4091 93.4981C108.006 93.4981 114.974 86.3743 114.974 77.5868C114.974 68.7993 108.006 61.6755 99.4091 61.6755C90.8126 61.6755 83.8438 68.7993 83.8438 77.5868C83.8438 86.3743 90.8126 93.4981 99.4091 93.4981Z" stroke="#00396C" stroke-width="1.1957" stroke-miterlimit="10" stroke-linecap="round" stroke-linejoin="round"/>
<path d="M96.201 85.0422C96.2742 85.5668 95.9082 86.0671 95.3837 86.1403L91.5289 86.7016H91.3825C90.8458 86.7382 90.3823 86.3356 90.3457 85.7987C90.3091 85.2618 90.7116 84.7981 91.2484 84.7615L92.6878 84.5541C88.833 80.9911 88.6013 74.9756 92.1632 71.1198C93.9564 69.1797 96.4693 68.0815 99.1164 68.0693C99.4092 68.0693 99.702 68.0693 99.9947 68.1059C100.531 68.1547 100.922 68.6306 100.873 69.1675C100.824 69.7044 100.348 70.0949 99.8117 70.046C99.58 70.0216 99.3482 70.0094 99.1164 70.0094C94.9445 70.0216 91.5655 73.4138 91.5655 77.5868C91.5655 79.6733 92.4316 81.6622 93.9564 83.0899L93.7125 81.4426C93.6881 80.9057 94.0906 80.4543 94.6274 80.4176C95.0909 80.3932 95.5178 80.7105 95.6276 81.162L96.201 85.0422ZM106.131 70.6073L107.57 70.3999C108.095 70.3267 108.461 69.8264 108.387 69.3017C108.314 68.777 107.814 68.411 107.289 68.4842L103.435 69.0211C102.91 69.0943 102.544 69.5946 102.617 70.1193L103.179 73.9995C103.252 74.4753 103.654 74.8292 104.13 74.8292H104.276C104.813 74.756 105.179 74.2557 105.094 73.7188V73.7066L104.85 72.0594C107.899 74.9146 108.046 79.7099 105.191 82.7482C103.764 84.2734 102.63 85.1276 100.544 85.1398C100.312 85.1398 100.08 85.1398 99.8483 85.1032C99.3116 85.0544 98.8359 85.4448 98.7871 85.9817C98.7383 86.5186 99.1286 86.9945 99.6654 87.0433C99.9581 87.0677 100.251 87.0799 100.544 87.0799C105.789 87.0677 109.192 82.8092 109.18 77.5624C109.18 74.9268 108.07 72.401 106.131 70.6073Z" fill="white"/>
<path d="M98.8602 68.3988H98.7382V87.0921H98.8602V68.3988Z" fill="white"/>
<path d="M99.4214 68.3988H98.8724V87.0921H99.4214V68.3988Z" fill="white"/>
<path d="M99.9581 68.3988H99.4092V87.0921H99.9581V68.3988Z" fill="white"/>
<path d="M100.507 68.3988H99.9581V87.0921H100.507V68.3988Z" fill="white"/>
<path d="M101.044 68.3988H100.495V87.0921H101.044V68.3988Z" fill="white"/>
<path d="M101.593 68.3988H101.044V87.0921H101.593V68.3988Z" fill="white"/>
<path d="M102.129 68.3988H101.581V87.0921H102.129V68.3988Z" fill="white"/>
<path d="M102.678 68.3988H102.129V87.0921H102.678V68.3988Z" fill="white"/>
<path d="M103.215 68.3988H102.666V87.0921H103.215V68.3988Z" fill="white"/>
<path d="M103.764 68.3988H103.215V87.0921H103.764V68.3988Z" fill="white"/>
<path d="M104.301 68.3988H103.752V87.0921H104.301V68.3988Z" fill="white"/>
<path d="M104.85 68.3988H104.301V87.0921H104.85V68.3988Z" fill="white"/>
<path d="M105.386 68.3988H104.838V87.0921H105.386V68.3988Z" fill="white"/>
<path d="M105.935 68.3988H105.386V87.0921H105.935V68.3988Z" fill="white"/>
<path d="M106.472 68.3988H105.923V87.0921H106.472V68.3988Z" fill="white"/>
<path d="M107.021 68.3988H106.472V87.0921H107.021V68.3988Z" fill="white"/>
<path d="M107.558 68.3988H107.009V87.0921H107.558V68.3988Z" fill="white"/>
<path d="M108.107 68.3988H107.558V87.0921H108.107V68.3988Z" fill="white"/>
<path d="M108.643 68.3988H108.095V87.0921H108.643V68.3988Z" fill="white"/>
<path d="M109.192 68.3988H108.643V87.0921H109.192V68.3988Z" fill="white"/>
<path d="M109.192 68.3988H109.18V87.0921H109.192V68.3988Z" fill="white"/>
<path d="M89.6381 68.0815H88.6013V86.7382H89.6381V68.0815Z" fill="white"/>
<path d="M90.1871 68.0815H89.6381V86.7382H90.1871V68.0815Z" fill="white"/>
<path d="M90.736 68.0815H90.1871V86.7382H90.736V68.0815Z" fill="white"/>
<path d="M91.2728 68.0815H90.7238V86.7382H91.2728V68.0815Z" fill="white"/>
<path d="M91.8216 68.0815H91.2727V86.7382H91.8216V68.0815Z" fill="white"/>
<path d="M92.3584 68.0815H91.8094V86.7382H92.3584V68.0815Z" fill="white"/>
<path d="M92.9073 68.0815H92.3584V86.7382H92.9073V68.0815Z" fill="white"/>
<path d="M93.4441 68.0815H92.8951V86.7382H93.4441V68.0815Z" fill="white"/>
<path d="M93.993 68.0815H93.4441V86.7382H93.993V68.0815Z" fill="white"/>
<path d="M94.5298 68.0815H93.9808V86.7382H94.5298V68.0815Z" fill="white"/>
<path d="M95.0787 68.0815H94.5297V86.7382H95.0787V68.0815Z" fill="white"/>
<path d="M95.6154 68.0815H95.0665V86.7382H95.6154V68.0815Z" fill="white"/>
<path d="M96.1644 68.0815H95.6154V86.7382H96.1644V68.0815Z" fill="white"/>
<path d="M96.7011 68.0815H96.1522V86.7382H96.7011V68.0815Z" fill="white"/>
<path d="M97.25 68.0815H96.7011V86.7382H97.25V68.0815Z" fill="white"/>
<path d="M97.7867 68.0815H97.2378V86.7382H97.7867V68.0815Z" fill="white"/>
<path d="M98.3357 68.0815H97.7867V86.7382H98.3357V68.0815Z" fill="white"/>
<path d="M98.8724 68.0815H98.3235V86.7382H98.8724V68.0815Z" fill="white"/>
<path d="M99.4214 68.0815H98.8724V86.7382H99.4214V68.0815Z" fill="white"/>
<path d="M99.9581 68.0815H99.4092V86.7382H99.9581V68.0815Z" fill="white"/>
<path d="M100.507 68.0815H99.9581V86.7382H100.507V68.0815Z" fill="white"/>
<path d="M100.922 68.0815H100.495V86.7382H100.922V68.0815Z" fill="white"/>
<path d="M35.7083 107.445L37.9773 109.714" stroke="#FF610E" stroke-width="1.5102" stroke-miterlimit="10"/>
<path d="M40.112 111.85L42.381 114.119" stroke="#FF610E" stroke-width="1.5102" stroke-miterlimit="10"/>
<path d="M42.381 107.445L40.112 109.714" stroke="#FF610E" stroke-width="1.5102" stroke-miterlimit="10"/>
<path d="M37.9773 111.85L35.7083 114.119" stroke="#FF610E" stroke-width="1.5102" stroke-miterlimit="10"/>
<path d="M105.923 50.2789L107.729 52.0848" stroke="#FF610E" stroke-width="1.1957" stroke-miterlimit="10"/>
<path d="M109.412 53.7687L111.217 55.5624" stroke="#FF610E" stroke-width="1.1957" stroke-miterlimit="10"/>
<path d="M111.217 50.2789L109.412 52.0848" stroke="#FF610E" stroke-width="1.1957" stroke-miterlimit="10"/>
<path d="M107.729 53.7687L105.923 55.5624" stroke="#FF610E" stroke-width="1.1957" stroke-miterlimit="10"/>
<path d="M32 35.8807L33.7932 37.6744" stroke="#FF610E" stroke-width="1.1957" stroke-miterlimit="10"/>
<path d="M35.4766 39.3583L37.282 41.1642" stroke="#FF610E" stroke-width="1.1957" stroke-miterlimit="10"/>
<path d="M37.282 35.8807L35.4766 37.6744" stroke="#FF610E" stroke-width="1.1957" stroke-miterlimit="10"/>
<path d="M33.7932 39.3583L32 41.1642" stroke="#FF610E" stroke-width="1.1957" stroke-miterlimit="10"/>
</g>
<defs>
<clipPath id="clip0_893_2658">
<rect width="87" height="88" fill="white" transform="translate(32 31)"/>
</clipPath>
</defs>
</svg>
