<svg width="150" height="150" viewBox="0 0 150 150" fill="none" xmlns="http://www.w3.org/2000/svg">
<path d="M110.82 52.0601H42.96V93.6801H110.82V52.0601Z" fill="#00396C"/>
<path d="M42.96 55.8402V88.1202C42.96 91.1602 45.44 93.6402 48.48 93.6402H68.66C69.54 91.3602 70.48 89.2602 71.44 87.4802L65.08 52.0402H49.28L42.96 55.8402Z" fill="#FAB367"/>
<path d="M110.82 68.4601C108.06 79.1401 100.74 87.6401 93.78 93.6601H105.28C108.32 93.6601 110.8 91.1801 110.8 88.1401V68.4601H110.82Z" fill="#4D97CE"/>
<path d="M110.82 52.0601V93.6601H42.96V52.0601" stroke="#00396C" stroke-width="0.5" stroke-miterlimit="10" stroke-linecap="round" stroke-linejoin="round"/>
<path d="M42.96 52.0601V88.1401C42.96 91.1801 45.44 93.6601 48.48 93.6601H105.28C108.32 93.6601 110.8 91.1801 110.8 88.1401V52.0601" stroke="#00396C" stroke-width="0.5" stroke-miterlimit="10" stroke-linecap="round" stroke-linejoin="round"/>
<path d="M45.58 45.4801H108.2C110.88 45.4801 113.08 47.6601 113.08 50.3601V85.0001C113.08 87.6801 110.9 89.8801 108.2 89.8801H45.58C42.9 89.8801 40.7 87.7001 40.7 85.0001V50.3401C40.7 47.6601 42.88 45.4801 45.58 45.4801Z" fill="#00529A"/>
<path d="M40.7 50.5001V70.3401C55.12 69.0201 78.58 63.9001 95.12 45.4801H45.74C42.96 45.4801 40.7 47.7201 40.7 50.5001Z" fill="#4D97CE"/>
<path d="M113.06 56.5402C91.9 59.6802 78.38 76.9402 71.06 89.8602H107.16C110.4 89.8602 113.06 87.2002 113.06 83.9602V56.5402Z" fill="#00529A"/>
<path d="M103.96 67.3601C104.08 67.3801 104.2 67.4001 104.3 67.4201C105.3 67.5601 106.08 68.4001 106.24 69.3801C106.26 69.5201 106.26 69.6401 106.26 69.7801C106.26 73.2601 106.26 76.7601 106.26 80.2401C106.26 81.1601 105.84 81.8801 105.04 82.3601C104.7 82.5601 104.32 82.6601 103.92 82.6601C100.38 82.6601 96.86 82.6601 93.32 82.6601C92.18 82.6601 91.26 81.8201 91.06 80.7401C91.02 80.5401 91 80.3401 91 80.1401C91 76.6801 91 73.2201 91 69.7601C91 68.9401 91.36 68.2801 92.02 67.8001C92.36 67.5601 92.76 67.4201 93.18 67.4001C93.22 67.4001 93.26 67.3801 93.3 67.3801H103.96V67.3601ZM93.52 75.0401C93.64 74.9201 93.72 74.8601 93.8 74.7801C94.42 74.1601 95.04 73.5201 95.64 72.9001C95.98 72.5601 96.34 72.2201 96.64 71.8601C97.04 71.4001 97.16 70.8401 97.04 70.2201C96.98 69.8401 96.8 69.4801 96.54 69.2001C96.22 68.8401 95.8 68.6201 95.32 68.5801C94.9 68.5601 94.48 68.5601 94.06 68.5601C93.82 68.5601 93.58 68.5801 93.36 68.7201C92.92 68.9801 92.7 69.4001 92.7 69.9001C92.7 72.3001 92.7 74.7001 92.7 77.1201C92.7 78.1401 92.7 79.1401 92.7 80.1601C92.7 80.7801 93.12 81.3201 93.72 81.4201C94.1 81.4801 94.5 81.4601 94.9 81.4201C95.52 81.3601 96.06 81.0801 96.46 80.5801C97.1 79.8201 97.06 78.6601 96.36 77.9401C95.8 77.3601 95.24 76.7801 94.68 76.2201C94.32 75.8201 93.94 75.4401 93.52 75.0401ZM98.1 68.5601C98.16 68.6601 98.22 68.7601 98.26 68.8401C98.64 69.5801 98.74 70.3601 98.64 71.1601C98.54 71.9801 98.22 72.6801 97.62 73.2601C97.16 73.7001 96.74 74.1601 96.28 74.6201C96.16 74.7401 96.06 74.8601 95.94 74.9801C95.96 75.0201 96 75.0401 96.02 75.0601C96.56 75.6201 97.12 76.1601 97.64 76.7201C97.82 76.9201 97.98 77.1401 98.12 77.3801C98.36 77.7801 98.48 78.2401 98.54 78.7001C98.58 79.0201 98.6 79.3201 98.56 79.6401C98.46 80.1601 98.3 80.6601 98.08 81.1401C98.04 81.2201 98.02 81.3001 97.98 81.4001H98.14H99.14C100.5 81.4001 101.86 81.4001 103.22 81.4001C103.48 81.4001 103.72 81.3601 103.96 81.2001C101.92 79.1201 99.88 77.0401 97.84 74.9601C97.86 74.9401 97.88 74.9201 97.9 74.9001C98.38 74.4001 98.86 73.9201 99.34 73.4201C99.82 72.9201 100.32 72.4201 100.8 71.9001C101.1 71.5801 101.28 71.1801 101.32 70.7401C101.36 70.1401 101.2 69.6201 100.8 69.1601C100.48 68.8001 100.06 68.5601 99.58 68.5201C99.14 68.4801 98.68 68.5001 98.24 68.5001C98.2 68.5601 98.16 68.5601 98.1 68.5601ZM104.5 79.5001C104.52 79.4801 104.54 79.4801 104.56 79.4601V79.3001C104.56 76.2001 104.56 73.0801 104.56 69.9801C104.56 69.8601 104.56 69.7401 104.54 69.6201C104.46 69.1201 104.04 68.6601 103.54 68.6001C103.16 68.5601 102.76 68.5601 102.38 68.5401C102.38 68.5401 102.36 68.5401 102.36 68.5601C102.38 68.5801 102.38 68.6201 102.4 68.6401C102.74 69.1801 102.88 69.7601 102.94 70.3801C102.96 70.7401 102.94 71.0801 102.86 71.4401C102.74 72.0801 102.48 72.6401 102 73.1201C101.4 73.7001 100.82 74.3201 100.22 74.9001C100.14 74.9801 100.14 75.0201 100.22 75.1001C100.76 75.6401 101.28 76.1801 101.8 76.7201C102.64 77.5601 103.46 78.4201 104.3 79.2601C104.38 79.3201 104.44 79.4201 104.5 79.5001Z" fill="white"/>
<path d="M45.58 45.4801H108.2C110.88 45.4801 113.08 47.6601 113.08 50.3601V85.0001C113.08 87.6801 110.9 89.8801 108.2 89.8801H45.58C42.9 89.8801 40.7 87.7001 40.7 85.0001V50.3401C40.7 47.6601 42.88 45.4801 45.58 45.4801Z" stroke="#00396C" stroke-width="0.5" stroke-miterlimit="10" stroke-linecap="round" stroke-linejoin="round"/>
<path d="M70.64 84.16C70.72 84.52 71.16 84.78 71.6 84.76L73.4 92.08C72.92 92.14 72.58 92.5 72.68 92.92C72.78 93.32 73.26 93.58 73.74 93.52L74.22 95.48C74.4 96.24 73.78 96.98 72.84 97.12L35.4 102.9C34.44 103.04 33.52 102.36 33.36 101.36L32.92 98.8C33.4 98.74 33.74 98.26 33.66 97.76C33.58 97.24 33.1 96.86 32.6 96.92L30.96 87.34C31.4 87.32 31.7 86.92 31.62 86.46C31.54 85.98 31.1 85.64 30.66 85.66L30.06 82.12C29.9 81.14 30.52 80.3 31.48 80.28L68.58 79.42C69.52 79.4 70.44 80 70.62 80.76L71.28 83.46C70.84 83.48 70.56 83.78 70.64 84.16Z" fill="#FF9051"/>
<path d="M49.84 96.7401L46.52 97.1801L39.46 89.5601L40.98 97.9001L37.66 98.3401L35.2 84.5401L38.5 84.3801L45.56 92.2001L44 84.1001L47.3 83.9401L49.84 96.7401Z" fill="white"/>
<path d="M53 83.6801L55.56 96.0001L52.24 96.4401L49.7 83.8401L53 83.6801Z" fill="white"/>
<path d="M65.84 94.6401L60.12 90.0001L61.26 95.2401L57.94 95.6801L55.36 83.5601L58.66 83.4001L59.8 88.6001L63.16 83.1801L67.04 82.9801L63.08 88.9201L69.88 94.1201L65.84 94.6401Z" fill="white"/>
<path d="M70.64 84.16C70.72 84.52 71.16 84.78 71.6 84.76L73.4 92.08C72.92 92.14 72.58 92.5 72.68 92.92C72.78 93.32 73.26 93.58 73.74 93.52L74.22 95.48C74.4 96.24 73.78 96.98 72.84 97.12L35.4 102.9C34.44 103.04 33.52 102.36 33.36 101.36L32.92 98.8C33.4 98.74 33.74 98.26 33.66 97.76C33.58 97.24 33.1 96.86 32.6 96.92L30.96 87.34C31.4 87.32 31.7 86.92 31.62 86.46C31.54 85.98 31.1 85.64 30.66 85.66L30.06 82.12C29.9 81.14 30.52 80.3 31.48 80.28L68.58 79.42C69.52 79.4 70.44 80 70.62 80.76L71.28 83.46C70.84 83.48 70.56 83.78 70.64 84.16Z" stroke="#00396C" stroke-width="0.5" stroke-miterlimit="10" stroke-linecap="round" stroke-linejoin="round"/>
<path d="M115.74 82.42L93.72 104.44L84.58 95.32L76.72 103.18L93.72 120.18L123.6 90.28L115.74 82.42Z" fill="#FF9051"/>
<path d="M115.74 82.42L93.72 104.44L84.58 95.32L76.72 103.18L93.72 120.18L115.74 82.42Z" fill="#FF9051"/>
<path d="M115.74 82.42L93.72 104.44L84.58 95.32L82.62 97.28L93.72 120.18L117.7 84.38L115.74 82.42Z" fill="#FF610E"/>
<path d="M115.74 82.42L93.72 104.44L84.58 95.32L76.72 103.18L93.72 120.18L123.6 90.28L115.74 82.42Z" stroke="#00396C" stroke-width="0.5" stroke-miterlimit="10" stroke-linecap="round" stroke-linejoin="round"/>
<path d="M32.16 40.66H34.62" stroke="#00396C" stroke-miterlimit="10" stroke-linecap="round" stroke-linejoin="round"/>
<path d="M39.96 40.66H42.42" stroke="#00396C" stroke-miterlimit="10" stroke-linecap="round" stroke-linejoin="round"/>
<path d="M37.3 35.54V38" stroke="#00396C" stroke-miterlimit="10" stroke-linecap="round" stroke-linejoin="round"/>
<path d="M37.3 43.3401V45.8001" stroke="#00396C" stroke-miterlimit="10" stroke-linecap="round" stroke-linejoin="round"/>
<path d="M87.6 32.2001H90.06" stroke="#00396C" stroke-miterlimit="10" stroke-linecap="round" stroke-linejoin="round"/>
<path d="M95.4 32.2001H97.86" stroke="#00396C" stroke-miterlimit="10" stroke-linecap="round" stroke-linejoin="round"/>
<path d="M92.74 27.0601V29.5201" stroke="#00396C" stroke-miterlimit="10" stroke-linecap="round" stroke-linejoin="round"/>
<path d="M92.74 34.8601V37.3201" stroke="#00396C" stroke-miterlimit="10" stroke-linecap="round" stroke-linejoin="round"/>
<path d="M62.78 112.64H65.24" stroke="#00396C" stroke-miterlimit="10" stroke-linecap="round" stroke-linejoin="round"/>
<path d="M70.58 112.64H73.04" stroke="#00396C" stroke-miterlimit="10" stroke-linecap="round" stroke-linejoin="round"/>
<path d="M67.92 107.52V109.98" stroke="#00396C" stroke-miterlimit="10" stroke-linecap="round" stroke-linejoin="round"/>
<path d="M67.92 115.32V117.76" stroke="#00396C" stroke-miterlimit="10" stroke-linecap="round" stroke-linejoin="round"/>
</svg>
