<svg width="120" height="120" viewBox="0 0 120 120" fill="none" xmlns="http://www.w3.org/2000/svg">
<path d="M8.76831 39.164C8.76831 23.0959 21.794 10.0702 37.8619 10.0702H82.1381C98.2061 10.0702 111.232 23.0959 111.232 39.164V80.8361C111.232 96.9041 98.2061 109.93 82.1381 109.93H37.8619C21.794 109.93 8.76831 96.9041 8.76831 80.8361V39.164Z" fill="#F4F8FB"/>
<g clip-path="url(#clip0_3279_280)">
<path d="M74.4632 70.3552C74.4632 70.3552 74.4594 70.3552 74.4556 70.3552C74.3001 70.3514 74.1749 70.2224 74.1787 70.0631C74.1825 69.9303 74.5997 56.7683 87.6973 51.3896C87.8452 51.3328 88.0083 51.401 88.069 51.5452C88.1297 51.6893 88.0576 51.8562 87.9135 51.9169C75.1535 57.1552 74.7476 69.9455 74.7476 70.0745C74.7438 70.23 74.6187 70.3552 74.4632 70.3552Z" fill="#00396C"/>
<path d="M95.0483 53.2824L92.1959 51.4313L92.1769 48.9469L89.1993 50.0507L85.1483 47.642L103.845 42.7375L95.0483 53.2824Z" fill="#FD9E1C"/>
<path d="M92.1958 51.4314L95.8979 47.5548L92.1769 48.9469L92.1958 51.4314Z" fill="#00396C"/>
<path d="M92.1959 51.7159C92.1618 51.7159 92.1238 51.7083 92.0897 51.6969C91.9835 51.6552 91.9114 51.549 91.9114 51.4352L91.8925 48.9507C91.8925 48.8332 91.9645 48.7232 92.0783 48.6814L95.7994 47.2894C95.9245 47.2438 96.0649 47.2894 96.1369 47.3994C96.209 47.5094 96.1976 47.6573 96.1066 47.7521L92.4045 51.6287C92.3476 51.6856 92.2718 51.7159 92.1959 51.7159ZM92.4614 49.1442L92.4728 50.7259L94.8321 48.2566L92.4614 49.1442Z" fill="#00396C"/>
<path d="M95.0482 53.5668C94.9951 53.5668 94.942 53.5517 94.8927 53.5213L92.0403 51.6703C91.9607 51.6172 91.9113 51.5299 91.9113 51.4351L91.8962 49.3565L89.2979 50.3199C89.2182 50.3503 89.1272 50.3427 89.0551 50.2972L85.0041 47.8886C84.9055 47.8317 84.8524 47.7179 84.8676 47.6041C84.8827 47.4903 84.9662 47.3993 85.0762 47.3689L103.772 42.4644C103.894 42.4341 104.019 42.4834 104.083 42.5858C104.148 42.692 104.14 42.8248 104.061 42.9196L95.2644 53.4644C95.2113 53.5327 95.1317 53.5668 95.0482 53.5668ZM92.4803 51.2758L94.9913 52.9068L103.055 43.2382L85.8765 47.7444L89.2258 49.7358L92.0744 48.6775C92.1617 48.6434 92.2603 48.6586 92.3362 48.7117C92.412 48.7648 92.4576 48.852 92.4576 48.943L92.4803 51.2758Z" fill="#00396C"/>
<path d="M80.6306 61.2442C80.5927 61.2442 80.5586 61.2366 80.5206 61.2214C80.3765 61.1607 80.3082 60.9938 80.3651 60.8497C80.4486 60.6449 82.4779 55.8504 87.2913 53.9766C87.4392 53.9197 87.6024 53.9918 87.6592 54.1397C87.7161 54.2876 87.6441 54.4507 87.4961 54.5076C82.9141 56.2904 80.9075 61.0204 80.8886 61.0697C80.8468 61.1797 80.7406 61.2442 80.6306 61.2442Z" fill="#00396C"/>
<path d="M47.9569 84.1886L44.8124 86.7982C44.7251 86.8703 44.6303 86.9272 44.5241 86.9727C44.2662 87.0827 43.9513 87.1131 43.591 87.0713C43.5417 87.0637 43.4924 87.06 43.4431 87.0486C43.3406 87.0296 43.2382 87.0069 43.1282 86.9803C42.9006 86.9234 42.6617 86.84 42.4075 86.7375C42.3127 86.6996 42.2141 86.6579 42.1117 86.6124C41.9941 86.5555 41.8765 86.4986 41.7513 86.4379C41.3265 86.2217 40.8751 85.9524 40.4048 85.63C40.3024 85.5617 40.1962 85.4934 40.09 85.4213C39.5817 85.061 39.0544 84.6551 38.512 84.1962C38.421 84.1203 38.3262 84.0369 38.2313 83.9572C37.7951 83.5779 37.3475 83.172 36.8962 82.7358C36.8127 82.6486 36.7217 82.5651 36.6382 82.4817C36.3386 82.1896 36.0465 81.8824 35.7469 81.5675C35.7317 81.5524 35.7165 81.5372 35.7013 81.5182C35.6331 81.45 35.5648 81.3741 35.4965 81.302C35.1286 80.9038 34.7607 80.4865 34.3927 80.0579C34.3169 79.9669 34.2372 79.8758 34.1575 79.781L33.9907 79.58C33.6531 79.1741 33.3307 78.7682 33.0158 78.3624C32.94 78.2675 32.8679 78.1689 32.7958 78.0741C32.6934 77.9375 32.591 77.801 32.4924 77.6644C32.2875 77.3838 32.0903 77.1069 31.8969 76.83C31.8286 76.7275 31.7565 76.6289 31.6882 76.5265C31.4948 76.242 31.3089 75.9575 31.1269 75.6769C31.0624 75.5706 30.9979 75.4682 30.9334 75.3658C30.7096 75.0055 30.4972 74.6489 30.3038 74.3038C30.2431 74.1975 30.1824 74.0913 30.1255 73.9813C29.9548 73.6779 29.7993 73.3782 29.6589 73.0824C29.602 72.9686 29.5489 72.8586 29.4958 72.7486C29.4048 72.5551 29.3175 72.3693 29.2379 72.1834C29.181 72.0506 29.1279 71.9217 29.0748 71.7927C29.0596 71.7548 29.0444 71.7206 29.0331 71.6827C28.9838 71.5613 28.9382 71.4437 28.8965 71.3224C28.76 70.9544 28.6538 70.6055 28.5741 70.2755C28.54 70.1389 28.5096 70.0024 28.4869 69.8734C28.4224 69.532 28.392 69.221 28.3958 68.9403C28.3958 68.7506 28.4148 68.58 28.4489 68.4206C28.521 68.0717 28.6689 67.7986 28.8965 67.6089L32.041 64.9993L47.9569 84.1886Z" fill="#F7A33E"/>
<path d="M47.9568 84.1887C47.0768 84.9207 44.892 83.8662 42.3013 81.67C41.4024 80.9076 40.4541 80.0049 39.4906 78.9921C38.8799 78.3511 38.2655 77.6607 37.6548 76.9362C37.5903 76.8566 37.522 76.7769 37.4575 76.6973C36.733 75.8249 36.0617 74.9525 35.4548 74.1028C35.3941 74.0193 35.3334 73.9359 35.2765 73.8487C32.3103 69.6345 30.8879 65.9476 32.0372 64.9956C33.1637 64.0662 36.4068 66.0387 39.9155 69.5928C40.7803 70.469 41.6603 71.44 42.5327 72.4869C46.9251 77.7897 49.3527 83.0242 47.9568 84.1887Z" fill="#FFB957"/>
<path d="M43.8869 87.3749C43.7807 87.3749 43.6707 87.3673 43.5569 87.3559L43.5076 87.3483C43.4659 87.3445 43.4242 87.3369 43.3786 87.3255C43.2838 87.3066 43.1776 87.2838 43.06 87.2573C42.8362 87.2004 42.5859 87.1169 42.3014 87.0031C42.2028 86.9652 42.1004 86.9197 41.998 86.8742L41.63 86.6959C41.1824 86.4683 40.7197 86.1914 40.2455 85.8652L39.9307 85.6566C39.3883 85.2735 38.8497 84.8562 38.33 84.4124L38.0493 84.1735C37.5638 83.7524 37.1238 83.3504 36.699 82.9407C36.6421 82.8838 36.5928 82.8345 36.5397 82.7852L36.4373 82.6828C36.1414 82.3945 35.8531 82.0911 35.5573 81.78C35.5269 81.7459 35.5042 81.7231 35.4814 81.6966C35.4511 81.67 35.4017 81.6169 35.3562 81.5638L35.2917 81.4956C34.9466 81.1238 34.5824 80.7142 34.1804 80.24L33.7745 79.7583C33.4673 79.3904 33.1448 78.9883 32.7921 78.5331C32.739 78.4687 32.6859 78.3966 32.6328 78.3245L32.5683 78.2411C32.4621 78.1007 32.3597 77.9642 32.2611 77.8276C32.0562 77.5469 31.859 77.2662 31.6617 76.9893L31.5593 76.8414C31.5214 76.7883 31.4835 76.7352 31.4493 76.6821C31.2559 76.3976 31.07 76.1131 30.888 75.8287C30.8197 75.7149 30.7552 75.6162 30.6907 75.5138C30.4555 75.1345 30.2393 74.7742 30.0535 74.4404C29.9852 74.3228 29.9283 74.2166 29.8714 74.1104C29.7045 73.8145 29.5452 73.5035 29.4011 73.2038C29.348 73.0938 29.2911 72.9838 29.238 72.87C29.1431 72.6728 29.0559 72.4831 28.9762 72.2935C28.9231 72.1721 28.8738 72.0545 28.8245 71.9331L28.8093 71.8952C28.7866 71.8345 28.7714 71.8004 28.76 71.7624C28.7183 71.6638 28.669 71.5387 28.6273 71.4135C28.4945 71.0531 28.3807 70.689 28.2973 70.34C28.2631 70.1997 28.229 70.0556 28.2062 69.919C28.138 69.5624 28.1076 69.2324 28.1114 68.9328C28.1114 68.7318 28.1304 68.5421 28.1721 68.3562C28.2593 67.9428 28.4414 67.6166 28.7145 67.3852L31.859 64.7755C31.9804 64.6769 32.1586 64.6921 32.2611 64.8135C32.3597 64.9349 32.3445 65.1131 32.2231 65.2156L29.0786 67.8252C28.9042 67.9693 28.7866 68.1893 28.7297 68.4738C28.6993 68.6218 28.6842 68.7735 28.6842 68.9366C28.6804 69.2021 28.7107 69.4942 28.7714 69.8166C28.7942 69.9418 28.8245 70.0707 28.8548 70.2035C28.9345 70.5335 29.0407 70.8749 29.1697 71.22C29.2114 71.3414 29.2569 71.4552 29.3024 71.5728C29.3176 71.6183 29.3252 71.6373 29.3328 71.6562L29.3555 71.7169C29.4048 71.8345 29.4504 71.9483 29.5035 72.0697C29.5831 72.2518 29.6666 72.4376 29.7576 72.6273C29.8107 72.7335 29.86 72.8435 29.9169 72.9535C30.0573 73.2493 30.2128 73.5452 30.3759 73.8411C30.4328 73.9511 30.4897 74.0497 30.5466 74.1483C30.74 74.4897 30.9486 74.8424 31.18 75.2142C31.2445 75.3166 31.309 75.419 31.3735 75.529C31.5517 75.8021 31.7338 76.0828 31.9273 76.3673C31.9614 76.4204 31.9993 76.4697 32.0335 76.519L32.1397 76.6707C32.3293 76.94 32.5266 77.2169 32.7276 77.4938C32.8262 77.6304 32.9286 77.7669 33.0273 77.8997L33.0917 77.9831C33.1411 78.0476 33.1904 78.1159 33.2435 78.1804C33.5962 78.6355 33.9111 79.03 34.2145 79.3942L34.6166 79.8721C35.0148 80.3349 35.3714 80.7407 35.709 81.1049L35.7735 81.1731C35.819 81.2225 35.8607 81.268 35.9062 81.3135L35.9555 81.3666C36.2628 81.689 36.5473 81.9887 36.8393 82.2731L36.938 82.3718C36.9948 82.4249 37.0517 82.4818 37.1048 82.5349C37.5145 82.9293 37.9469 83.3276 38.4211 83.7373L38.698 83.9724C39.21 84.4049 39.7335 84.8107 40.2569 85.1824L40.5642 85.3873C41.0193 85.6983 41.4593 85.9638 41.8804 86.18L42.2369 86.3507C42.328 86.3924 42.4228 86.4304 42.5138 86.4683C42.7793 86.5745 43.0031 86.6504 43.1966 86.6997C43.299 86.7224 43.3976 86.7452 43.4962 86.7642C43.5304 86.7718 43.5569 86.7756 43.5797 86.7793L43.6328 86.7869C43.94 86.8211 44.2055 86.7945 44.4104 86.7073C44.4938 86.6731 44.5621 86.6276 44.6304 86.5745L47.7748 83.9649C47.8962 83.8624 48.0745 83.8814 48.1769 84.0028C48.2755 84.1242 48.2604 84.3024 48.139 84.4049L44.9945 87.0145C44.8883 87.1018 44.7707 87.1738 44.638 87.2307C44.418 87.3255 44.1676 87.3749 43.8869 87.3749Z" fill="#00396C"/>
<path d="M47.24 84.6969C46.0793 84.6969 44.2889 83.7259 42.1193 81.8862C41.2089 81.1124 40.2531 80.2059 39.2858 79.1855C38.6865 78.5597 38.0682 77.8617 37.4386 77.1183L37.2375 76.8755C36.5244 76.0183 35.8455 75.1383 35.2234 74.2659C35.1589 74.1786 35.0982 74.0914 35.0375 74.0004C32.6062 70.5486 30.3113 66.0538 31.8551 64.7717C33.361 63.5276 37.2489 66.4824 40.1165 69.3879C41.0003 70.2831 41.8841 71.2617 42.7489 72.301C46.69 77.0576 49.9179 82.9179 48.1351 84.4048C47.9037 84.6021 47.6041 84.6969 47.24 84.6969ZM32.7693 65.0486C32.5341 65.0486 32.3482 65.1055 32.2155 65.2117C31.3962 65.8907 32.2724 69.0883 35.5079 73.6817C35.5686 73.7728 35.6255 73.8524 35.6824 73.9321C36.3006 74.7969 36.9682 75.6655 37.6737 76.5152L37.8748 76.7579C38.4931 77.49 39.1075 78.1766 39.6955 78.7986C40.6513 79.8 41.5882 80.6952 42.4834 81.4576C44.9831 83.5779 47.0617 84.5679 47.771 83.9762C48.8596 83.0659 46.8872 78.1993 42.3089 72.6766C41.4555 71.6524 40.5793 70.6852 39.7068 69.8014C36.4941 66.5317 33.9793 65.0486 32.7693 65.0486Z" fill="#00396C"/>
<path d="M46.8644 82.1934C45.901 82.9938 42.1951 80.1148 38.5879 75.7641C34.9806 71.4134 32.8375 67.241 33.7972 66.4407C34.7606 65.6403 38.4665 68.5193 42.0737 72.87C45.6848 77.2207 47.8279 81.3931 46.8644 82.1934Z" fill="#F48A16"/>
<path d="M31.3166 101.929L29.879 101.155C29.5793 100.996 29.5755 100.567 29.8752 100.4L31.3014 99.6076C31.3735 99.5659 31.4342 99.509 31.4721 99.4369L32.2459 97.9994C32.4052 97.6997 32.8338 97.6959 33.0007 97.9956L33.7935 99.4218C33.8352 99.4938 33.8921 99.5545 33.9642 99.5925L35.4017 100.366C35.7014 100.526 35.7052 100.954 35.4055 101.121L33.9793 101.914C33.9073 101.956 33.8504 102.012 33.8086 102.085L33.0349 103.522C32.8755 103.822 32.4469 103.826 32.28 103.526L31.4873 102.1C31.4493 102.028 31.3886 101.967 31.3166 101.929Z" fill="#FD9E1C"/>
<path d="M32.6593 104.034C32.4014 104.034 32.1624 103.894 32.0334 103.666L31.2407 102.24C31.2255 102.213 31.2065 102.194 31.1876 102.183C31.1876 102.183 31.1876 102.183 31.1838 102.183L29.7462 101.409C29.5186 101.288 29.3707 101.049 29.3707 100.787C29.3669 100.525 29.511 100.283 29.7386 100.154L31.1648 99.361C31.18 99.3534 31.2065 99.3306 31.2217 99.3079L31.9955 97.8665C32.1169 97.6389 32.3559 97.491 32.6176 97.491C32.6214 97.491 32.6214 97.491 32.6252 97.491C32.8831 97.491 33.1259 97.6313 33.251 97.8589L34.0438 99.2851C34.0514 99.3003 34.0741 99.3306 34.0969 99.342L35.5383 100.116C35.7659 100.237 35.91 100.476 35.9138 100.738C35.9176 101 35.7734 101.242 35.5459 101.371L34.1196 102.164C34.0931 102.179 34.0741 102.198 34.0552 102.229L33.2852 103.659C33.1638 103.886 32.9248 104.034 32.6631 104.034H32.6593ZM31.4493 101.679C31.5707 101.743 31.6731 101.845 31.7376 101.967L32.5265 103.389C32.5645 103.458 32.6252 103.465 32.6555 103.465C32.6821 103.465 32.7427 103.458 32.7807 103.389L33.5545 101.952C33.6265 101.83 33.7176 101.735 33.8352 101.671L35.2652 100.874C35.3334 100.836 35.341 100.772 35.341 100.745C35.341 100.719 35.3334 100.658 35.2652 100.62L33.8276 99.8427C33.7138 99.782 33.6152 99.6872 33.5469 99.562L32.7503 98.132C32.7124 98.0599 32.6441 98.0523 32.6214 98.0561C32.5948 98.0561 32.5341 98.0637 32.4962 98.132L31.7224 99.5696C31.6617 99.6834 31.5669 99.782 31.4455 99.8503L30.0155 100.647C29.9472 100.685 29.9396 100.749 29.9396 100.776C29.9396 100.802 29.9472 100.863 30.0155 100.901L31.4493 101.679Z" fill="#00396C"/>
<path d="M68.4131 79.8721L67.3586 79.2955C67.1386 79.1742 67.1386 78.8593 67.3586 78.7418L68.4131 78.1652C68.4662 78.1349 68.5079 78.0931 68.5383 78.04L69.1148 76.9893C69.2362 76.7693 69.551 76.7693 69.6686 76.9893L70.2452 78.04C70.2755 78.0931 70.3172 78.1387 70.3703 78.1652L71.4248 78.7418C71.6448 78.8631 71.6448 79.178 71.4248 79.2955L70.3703 79.8721C70.3172 79.9024 70.2717 79.9442 70.2452 79.9973L69.6686 81.048C69.5472 81.268 69.2324 81.268 69.1148 81.048L68.5383 79.9973C68.5117 79.9442 68.4662 79.9024 68.4131 79.8721Z" fill="#DB5919"/>
<path d="M92.1769 41.4062C91.9531 41.4062 91.7483 41.2849 91.6383 41.0876L91.039 39.9952L89.9314 39.3807C89.7342 39.2707 89.6128 39.0659 89.6128 38.8421C89.6128 38.6183 89.7342 38.4135 89.9314 38.3035L91.02 37.7042C91.0276 37.7004 91.0352 37.689 91.0428 37.6814L91.6421 36.5928C91.7521 36.3955 91.9569 36.2742 92.1807 36.2742C92.4045 36.2742 92.6093 36.3955 92.7193 36.5928L93.3187 37.6852L94.4262 38.2997C94.6235 38.4097 94.7449 38.6145 94.7449 38.8383C94.7449 39.0621 94.6235 39.2669 94.4262 39.3769L93.3338 39.9762L92.7193 41.0838C92.6055 41.2849 92.4007 41.4062 92.1769 41.4062ZM92.1769 36.8469C92.1504 36.8469 92.1428 36.8659 92.139 36.8697L91.5397 37.9621C91.4828 38.0645 91.3993 38.1442 91.3007 38.2011C91.3007 38.2011 91.2969 38.2011 91.2969 38.2049L90.2045 38.8042C90.2007 38.808 90.1818 38.8155 90.1818 38.8421C90.1818 38.8687 90.2007 38.8762 90.2045 38.88L91.2969 39.4793C91.4031 39.5362 91.4904 39.6273 91.5435 39.7335L92.139 40.8145C92.1428 40.8259 92.2111 40.8259 92.2187 40.8145L92.818 39.7221C92.8749 39.6159 92.9621 39.5287 93.0683 39.4755L94.1493 38.88C94.1531 38.8762 94.1721 38.8687 94.1721 38.8421C94.1721 38.8155 94.1531 38.808 94.1493 38.8042L93.0569 38.2049C92.9583 38.1518 92.8787 38.0721 92.818 37.9697L92.2149 36.8735C92.2149 36.8659 92.2035 36.8469 92.1769 36.8469Z" fill="#00396C"/>
<path d="M34.2297 30.1938L32.8566 30.9449C32.5721 31.1004 32.5721 31.5138 32.8566 31.6693L34.2297 32.4204C34.2979 32.4583 34.3548 32.5152 34.3928 32.5835L35.1438 33.9566C35.2993 34.2411 35.7128 34.2411 35.8683 33.9566L36.6193 32.5835C36.6572 32.5152 36.7141 32.4583 36.7824 32.4204L38.1555 31.6693C38.44 31.5138 38.44 31.1004 38.1555 30.9449L36.7824 30.1938C36.7141 30.1559 36.6572 30.099 36.6193 30.0307L35.8683 28.6576C35.7128 28.3693 35.2993 28.3693 35.1438 28.6576L34.3928 30.0307C34.3548 30.099 34.2979 30.1559 34.2297 30.1938Z" fill="#71ABFF"/>
<path d="M35.5079 34.4534C35.2538 34.4534 35.0186 34.3131 34.8972 34.0931L34.1462 32.72C34.1348 32.701 34.1158 32.682 34.0931 32.6707L32.72 31.9196C32.4962 31.7982 32.3596 31.5631 32.3596 31.3089C32.3596 31.0548 32.5 30.8196 32.72 30.6982L34.0931 29.9472C34.1158 29.9358 34.1348 29.9169 34.1462 29.8941L34.8972 28.521C35.0186 28.2972 35.2538 28.1569 35.5079 28.1569C35.7658 28.1569 35.9972 28.2972 36.1186 28.521L36.8696 29.8941C36.881 29.9131 36.9 29.932 36.9227 29.9434L38.2958 30.6944C38.5196 30.8158 38.6562 31.051 38.6562 31.3051C38.6562 31.5593 38.5158 31.7944 38.2958 31.9158L36.9227 32.6669C36.9038 32.6782 36.8848 32.6972 36.8734 32.72L36.1224 34.0893C35.9972 34.3169 35.762 34.4534 35.5079 34.4534ZM35.5079 28.7258C35.4813 28.7258 35.4282 28.7334 35.3979 28.7941L34.6469 30.1672C34.5824 30.2848 34.4875 30.3796 34.3738 30.4441L33.0007 31.1951C32.94 31.2255 32.9362 31.2862 32.9362 31.3089C32.9362 31.3317 32.9438 31.3886 33.0007 31.4227L34.3738 32.1738C34.4913 32.2382 34.5862 32.3331 34.6507 32.4469L35.4017 33.8238C35.432 33.8844 35.4927 33.8882 35.5155 33.8882C35.5382 33.8882 35.5951 33.8807 35.6293 33.8238L36.3803 32.4507C36.4448 32.3331 36.5396 32.2382 36.6534 32.1738L38.0265 31.4227C38.0872 31.3924 38.091 31.3317 38.091 31.3089C38.091 31.2862 38.0834 31.2293 38.0265 31.1951L36.6534 30.4441C36.5358 30.3796 36.441 30.2848 36.3765 30.171L35.6255 28.7979C35.5876 28.7334 35.5344 28.7258 35.5079 28.7258Z" fill="#00396C"/>
<path d="M62.7386 90.2766C63.2203 88.93 61.4717 87.1966 60.0493 87.0183C58.6269 86.84 57.2462 87.4545 55.8883 87.9097C54.5303 88.3648 52.9448 88.6379 51.7386 87.8641C50.7334 87.2193 50.2707 86.0207 49.66 84.9928C48.0176 82.239 44.5203 80.4221 41.5048 81.5107C39.8169 82.1176 38.3148 83.559 36.5358 83.3541C35.0945 83.191 33.9489 81.9621 32.5076 81.78C31.0434 81.5941 29.6665 82.5386 28.6727 83.631C27.6789 84.7235 26.8938 86.0207 25.7293 86.9272C25.1565 87.371 24.2158 87.83 23.5027 87.9704C23.2145 88.0272 22.9148 88.0538 22.6531 88.1866C22.0083 88.5128 21.8262 89.3283 21.7162 90.0414L62.7386 90.2766Z" fill="white"/>
<path d="M62.7387 90.6559L21.7125 90.4207C21.6025 90.4207 21.4963 90.3714 21.4242 90.2879C21.3521 90.2045 21.3218 90.0907 21.3369 89.9845C21.4735 89.1083 21.7049 88.2396 22.4787 87.849C22.7328 87.72 23.0021 87.6745 23.2411 87.6328C23.3018 87.6214 23.3625 87.61 23.4269 87.5986C24.049 87.4772 24.9366 87.06 25.4942 86.6276C26.2149 86.0662 26.78 85.3531 27.3794 84.5945C27.7018 84.1886 28.0318 83.7714 28.3883 83.3769C29.1507 82.5386 30.7059 81.1693 32.5531 81.4045C33.3383 81.5031 34.0249 81.8748 34.6849 82.2352C35.3221 82.5803 35.9214 82.9065 36.5738 82.9786C37.6245 83.1 38.5994 82.5652 39.6311 81.9962C40.1887 81.689 40.7652 81.3703 41.3721 81.1541C44.6873 79.9593 48.3552 82.0683 49.9825 84.7993C50.119 85.0307 50.2518 85.2734 50.3807 85.5162C50.8207 86.3317 51.238 87.0979 51.9397 87.5455C52.8273 88.1145 54.079 88.1145 55.7631 87.5493C55.9756 87.4772 56.188 87.4052 56.4004 87.3293C57.5838 86.9121 58.8052 86.4834 60.0911 86.6428C61.0849 86.7679 62.1925 87.5265 62.788 88.4938C63.19 89.15 63.3 89.829 63.0914 90.4055C63.0421 90.5572 62.898 90.6559 62.7387 90.6559ZM22.1714 89.6621L62.4352 89.8934C62.4694 89.5179 62.3063 89.15 62.1431 88.8883C61.6766 88.1296 60.7549 87.4886 60 87.3938C58.8925 87.2534 57.7545 87.6555 56.6583 88.0424C56.4421 88.1183 56.2259 88.1941 56.0097 88.2662C54.0904 88.911 52.6263 88.8807 51.5338 88.179C50.669 87.6252 50.1873 86.7338 49.7169 85.869C49.5918 85.6376 49.4666 85.4024 49.3338 85.1786C47.8621 82.7131 44.5811 80.7976 41.6338 81.8596C41.0838 82.0569 40.5338 82.3603 39.999 82.6524C38.9066 83.2517 37.78 83.87 36.4904 83.7221C35.69 83.631 34.9959 83.2555 34.3245 82.8914C33.6949 82.55 33.1031 82.2314 32.4583 82.1479C30.9525 81.9583 29.6135 83.1493 28.9535 83.8776C28.6159 84.2493 28.2897 84.659 27.9787 85.0534C27.3794 85.8121 26.7573 86.601 25.9645 87.2155C25.3159 87.7162 24.3145 88.1865 23.5787 88.3307C23.5104 88.3421 23.4459 88.3572 23.3776 88.3686C23.1728 88.4027 22.9794 88.4369 22.8276 88.5127C22.4597 88.71 22.2814 89.1538 22.1714 89.6621Z" fill="#00396C"/>
<path d="M62.7386 90.2766C63.2203 88.93 61.4717 87.1966 60.0493 87.0183C58.6269 86.84 57.2462 87.4545 55.8883 87.9097C54.5303 88.3648 52.9448 88.6379 51.7386 87.8641C50.7334 87.2193 50.2707 86.0207 49.66 84.9928C48.0176 82.239 44.5203 80.4221 41.5048 81.5107C39.8169 82.1176 38.3148 83.559 36.5358 83.3541C35.0945 83.191 33.9489 81.9621 32.5076 81.78C31.0434 81.5941 29.6665 82.5386 28.6727 83.631C27.6789 84.7235 26.8938 86.0207 25.7293 86.9272C25.1565 87.371 24.2158 87.83 23.5027 87.9704C23.2145 88.0272 22.9148 88.0538 22.6531 88.1866C22.0083 88.5128 21.8262 89.3283 21.7162 90.0414L62.7386 90.2766Z" fill="white"/>
<path d="M62.7386 90.5611L21.7162 90.3259C21.6328 90.3259 21.5569 90.288 21.5 90.2273C21.4431 90.1666 21.4241 90.0794 21.4355 89.9997C21.5683 89.1462 21.7921 88.308 22.5241 87.9362C22.7669 87.8149 23.0172 87.7694 23.26 87.7276C23.3207 87.7163 23.3852 87.7049 23.4459 87.6935C24.0793 87.5683 24.9859 87.1435 25.5548 86.7035C26.2831 86.1345 26.8521 85.4138 27.459 84.6514C27.7776 84.2456 28.1076 83.8283 28.4641 83.4376C29.2152 82.6145 30.7362 81.2642 32.5455 81.4956C33.3117 81.5942 33.9907 81.9583 34.6431 82.3149C35.2879 82.6638 35.8986 82.9938 36.57 83.0697C37.651 83.1949 38.6372 82.6525 39.6841 82.0759C40.2379 81.7725 40.8145 81.4538 41.4138 81.2414C44.6835 80.0618 48.3021 82.148 49.9104 84.8449C50.0469 85.0762 50.1797 85.3152 50.3086 85.558C50.7562 86.3811 51.1772 87.1625 51.8979 87.6252C52.8121 88.2094 54.0866 88.2169 55.8048 87.6404C56.0173 87.5683 56.2297 87.4925 56.4459 87.4204C57.6179 87.0069 58.8241 86.5783 60.0948 86.7376C61.0469 86.8552 62.1507 87.6176 62.7197 88.5431C63.1066 89.1728 63.2128 89.8252 63.0155 90.3752C62.9662 90.4852 62.86 90.5611 62.7386 90.5611ZM22.0538 89.7569L62.5186 89.9883C62.5907 89.5597 62.4086 89.1349 62.2228 88.839C61.7448 88.0576 60.7928 87.3976 60.0114 87.299C58.881 87.1587 57.7317 87.5607 56.6241 87.9514C56.4079 88.0273 56.1917 88.1031 55.9755 88.1752C54.0866 88.8087 52.649 88.7821 51.5831 88.0994C50.741 87.5569 50.2631 86.6769 49.8004 85.8273C49.6752 85.5921 49.5462 85.3607 49.4135 85.1369C47.9228 82.6373 44.5924 80.699 41.5997 81.7762C41.0421 81.9773 40.4883 82.2807 39.9535 82.5766C38.8762 83.1683 37.7648 83.7828 36.5017 83.6349C35.7204 83.5476 35.0338 83.1759 34.37 82.8156C33.7328 82.4704 33.1335 82.1442 32.4697 82.0607C30.9183 81.8635 29.5566 83.0773 28.8814 83.8207C28.54 84.1962 28.2138 84.6059 27.9028 85.0042C27.3035 85.759 26.689 86.5404 25.9038 87.1511C25.2666 87.6442 24.2804 88.1069 23.5559 88.2473C23.4914 88.2587 23.4231 88.27 23.3548 88.2852C23.1424 88.3231 22.9452 88.3573 22.7783 88.4407C22.3535 88.6569 22.1676 89.1804 22.0538 89.7569Z" fill="#00396C"/>
<path d="M40.9661 38.1063C41.2582 37.2945 40.2037 36.2514 39.3503 36.1452C38.4968 36.039 37.6624 36.407 36.8468 36.6801C36.0275 36.9532 35.0755 37.1201 34.351 36.6535C33.7479 36.2628 33.4672 35.5421 33.0993 34.9276C32.113 33.2701 30.0079 32.1776 28.191 32.8301C27.1744 33.198 26.2717 34.0628 25.1982 33.9414C24.3296 33.8428 23.6393 33.1032 22.7744 32.9932C21.8944 32.8794 21.0637 33.4483 20.4682 34.1083C19.8727 34.7683 19.3986 35.5459 18.6968 36.0921C18.3517 36.3576 17.7865 36.6345 17.3579 36.718C17.1834 36.7521 17.0051 36.7673 16.8458 36.847C16.4589 37.0442 16.3489 37.5335 16.2844 37.9621L40.9661 38.1063Z" fill="#FCC728"/>
<path d="M40.9663 38.3907L16.2845 38.2466C16.2011 38.2466 16.1252 38.2087 16.0683 38.148C16.0152 38.0835 15.9925 38.0038 16.0038 37.9204C16.0531 37.5828 16.1594 36.8773 16.7169 36.5928C16.88 36.5094 17.0469 36.4828 17.1911 36.4563L17.3011 36.4373C17.6652 36.3652 18.1887 36.1225 18.5225 35.8645C18.9549 35.5269 19.2963 35.0945 19.6604 34.6356C19.85 34.3966 20.0473 34.1463 20.2559 33.9149C20.7187 33.4028 21.6669 32.5607 22.8087 32.7087C23.2904 32.7694 23.7038 32.9969 24.1059 33.2131C24.4852 33.418 24.8418 33.6114 25.2249 33.6569C25.8431 33.7252 26.4235 33.4066 27.038 33.069C27.3756 32.8831 27.7245 32.6935 28.0887 32.5607C30.1142 31.8325 32.3483 33.1183 33.3383 34.7797C33.4218 34.92 33.5014 35.068 33.5811 35.2121C33.8428 35.6938 34.0931 36.1452 34.499 36.4107C35.0111 36.7407 35.7469 36.7407 36.7483 36.4069C36.8735 36.3652 36.9987 36.3197 37.1238 36.278C37.8445 36.0238 38.588 35.7621 39.3769 35.8607C39.9914 35.9366 40.6742 36.4069 41.0383 36.9987C41.2887 37.4083 41.3569 37.8331 41.2242 38.1973C41.1938 38.3149 41.0876 38.3907 40.9663 38.3907ZM16.6259 37.6814L40.7311 37.8218C40.7311 37.6283 40.6476 37.4387 40.5604 37.3021C40.2873 36.8583 39.7525 36.4828 39.3125 36.4297C38.66 36.35 37.9773 36.589 37.3173 36.8204C37.1883 36.8659 37.0594 36.9114 36.9342 36.9531C35.7583 37.3438 34.8631 37.3249 34.1956 36.8963C33.6683 36.5549 33.3725 36.0125 33.088 35.4928C33.0121 35.3525 32.9363 35.2121 32.8528 35.0794C31.9804 33.6152 30.0345 32.4735 28.2859 33.1031C27.9597 33.2207 27.6335 33.4028 27.3149 33.5773C26.6511 33.9414 25.9607 34.3245 25.1642 34.2297C24.6711 34.1728 24.2463 33.9452 23.8366 33.7214C23.4649 33.5204 23.1121 33.3269 22.7366 33.2814C21.849 33.1676 21.0676 33.8731 20.6769 34.3056C20.4797 34.5256 20.29 34.7645 20.1042 34.9997C19.7363 35.4663 19.3569 35.9442 18.8676 36.3235C18.4656 36.6307 17.8549 36.919 17.4073 37.0025L17.2821 37.0252C17.1607 37.048 17.0545 37.0631 16.9673 37.1087C16.789 37.1959 16.6904 37.4159 16.6259 37.6814Z" fill="#00396C"/>
<path d="M46.9707 94.8396H77.5925C80.0959 94.8396 82.1252 92.8103 82.1252 90.3069V29.1582C82.1252 26.6548 80.0959 24.6255 77.5925 24.6255H46.9707C44.4673 24.6255 42.438 26.6548 42.438 29.1582V90.3069C42.4418 92.8103 44.4711 94.8396 46.9707 94.8396Z" fill="#00396C"/>
<path d="M46.5041 94.8396H72.7182C74.5427 94.8396 76.0182 93.3603 76.0182 91.5396V27.9293C76.0182 26.1048 74.5389 24.6293 72.7182 24.6293H46.5041C44.6796 24.6293 43.2041 26.1086 43.2041 27.9293V91.5358C43.2041 93.3603 44.6834 94.8396 46.5041 94.8396Z" fill="#00529A"/>
<path d="M45.4611 85.6793H79.1059C80.7749 85.6793 82.1252 84.3252 82.1252 82.66V36.809C82.1252 35.14 80.7711 33.7897 79.1059 33.7897H45.4611C43.7921 33.7897 42.4418 35.1438 42.4418 36.809V82.66C42.4418 84.329 43.7921 85.6793 45.4611 85.6793Z" fill="#BAC4D3"/>
<path d="M44.9944 85.6793H80.0048C80.9948 85.6793 81.7951 84.879 81.7951 83.889V35.5762C81.7951 34.5862 80.9948 33.7859 80.0048 33.7859H44.9944C44.0044 33.7859 43.2041 34.5862 43.2041 35.5762V83.889C43.2041 84.879 44.0044 85.6793 44.9944 85.6793Z" fill="white"/>
<path d="M77.5962 95.1204H46.9669C44.3117 95.1204 42.1497 92.9583 42.1497 90.3031V29.1621C42.1497 26.5069 44.3117 24.3448 46.9669 24.3448H77.6C80.2552 24.3448 82.4134 26.5069 82.4134 29.1621V90.3031C82.4134 92.9583 80.2514 95.1204 77.5962 95.1204ZM46.9669 24.9138C44.6228 24.9138 42.7186 26.818 42.7186 29.1621V90.3031C42.7186 92.6473 44.6228 94.5514 46.9669 94.5514H77.5962C79.9403 94.5514 81.8445 92.6473 81.8445 90.3031V29.1621C81.8445 26.818 79.9403 24.9138 77.6 24.9138H46.9669Z" fill="#00396C"/>
<path d="M63.429 90.2614C63.429 90.891 62.9169 91.4069 62.2835 91.4069C61.65 91.4069 61.1379 90.8948 61.1379 90.2614C61.1379 89.6279 61.65 89.1158 62.2835 89.1158C62.9169 89.1158 63.429 89.6279 63.429 90.2614Z" fill="#FF9051"/>
<path d="M72.5855 90.2614C72.5855 90.891 72.0734 91.4069 71.44 91.4069C70.8065 91.4069 70.2944 90.8948 70.2944 90.2614C70.2944 89.6279 70.8065 89.1158 71.44 89.1158C72.0734 89.1158 72.5855 89.6279 72.5855 90.2614Z" fill="#FF9051"/>
<path d="M72.5855 29.2075C72.5855 29.841 72.0734 30.353 71.44 30.353C70.8065 30.353 70.2944 29.841 70.2944 29.2075C70.2944 28.5779 70.8065 28.062 71.44 28.062C72.0734 28.062 72.5855 28.5741 72.5855 29.2075Z" fill="#00396C"/>
<path d="M54.2686 90.2614C54.2686 90.891 53.7565 91.4069 53.1231 91.4069C52.4896 91.4069 51.9775 90.8948 51.9775 90.2614C51.9775 89.6279 52.4896 89.1158 53.1231 89.1158C53.7565 89.1158 54.2686 89.6279 54.2686 90.2614Z" fill="#FF9051"/>
<path d="M67.0931 29.3973H57.3221C57.2159 29.3973 57.1324 29.3138 57.1324 29.2076C57.1324 29.1014 57.2159 29.0179 57.3221 29.0179H67.0931C67.1993 29.0179 67.2828 29.1014 67.2828 29.2076C67.2828 29.3138 67.1993 29.3973 67.0931 29.3973Z" fill="#00396C"/>
<path d="M75.8969 63.0572H49.0986C47.7938 63.0572 46.7317 61.9951 46.7317 60.6903V53.4569C46.7317 52.152 47.7938 51.09 49.0986 51.09H75.8969C77.2017 51.09 78.2638 52.152 78.2638 53.4569V60.6903C78.2638 61.9951 77.2017 63.0572 75.8969 63.0572ZM49.0986 51.6589C48.1086 51.6589 47.3007 52.4669 47.3007 53.4569V60.6903C47.3007 61.6803 48.1086 62.4882 49.0986 62.4882H75.8969C76.8869 62.4882 77.6948 61.6803 77.6948 60.6903V53.4569C77.6948 52.4669 76.8869 51.6589 75.8969 51.6589H49.0986Z" fill="#00396C"/>
<path d="M50.0687 56.074H49.0514V55.4952C49.3199 55.4833 49.5078 55.4655 49.6153 55.4415C49.7862 55.4038 49.9255 55.3282 50.0329 55.2148C50.1065 55.1372 50.1621 55.0338 50.2 54.9046C50.2219 54.827 50.2327 54.7693 50.2327 54.7316H50.9398V59.0573H50.0687V56.074Z" fill="#00396C"/>
<path d="M54.2907 58.0727C54.2111 58.1404 54.1445 58.219 54.0908 58.3084H55.9792V59.0572H53.0168C53.0248 58.747 53.0914 58.4636 53.2167 58.207C53.3381 57.9187 53.6244 57.6134 54.076 57.2912C54.4677 57.0106 54.7214 56.8098 54.8367 56.6884C55.0137 56.4996 55.1022 56.2927 55.1022 56.068C55.1022 55.885 55.0514 55.7328 54.95 55.6116C54.8485 55.4902 54.7035 55.4296 54.5145 55.4296C54.2559 55.4296 54.08 55.5259 53.9864 55.7189C53.9327 55.8303 53.9009 56.0073 53.891 56.2499H53.0646C53.0785 55.882 53.1451 55.5847 53.2645 55.3579C53.4911 54.9264 53.8939 54.7106 54.4726 54.7106C54.9302 54.7106 55.2941 54.8373 55.5645 55.0909C55.8351 55.3445 55.9703 55.6801 55.9703 56.0978C55.9703 56.418 55.8749 56.7023 55.6839 56.9511C55.5586 57.1161 55.3527 57.3001 55.0664 57.503L54.7263 57.7445C54.5135 57.8957 54.3683 58.0051 54.2907 58.0727Z" fill="#00396C"/>
<path d="M58.1936 55.5937C58.0981 55.7208 58.0524 55.891 58.0564 56.1037H57.2628C57.2708 55.8889 57.3077 55.6851 57.3732 55.4922C57.4428 55.3231 57.5522 55.167 57.7014 55.0238C57.8128 54.9224 57.9451 54.8448 58.0981 54.7911C58.2513 54.7374 58.4393 54.7106 58.662 54.7106C59.0758 54.7106 59.4094 54.8175 59.6629 55.0313C59.9165 55.245 60.0432 55.532 60.0432 55.8919C60.0432 56.1466 59.9677 56.3613 59.8165 56.5363C59.7212 56.6458 59.6216 56.7204 59.5183 56.7601C59.5958 56.7601 59.7071 56.8268 59.8523 56.96C60.0691 57.1608 60.1776 57.4353 60.1776 57.7834C60.1776 58.1493 60.0508 58.471 59.7971 58.7485C59.5436 59.026 59.1681 59.1646 58.671 59.1646C58.0583 59.1646 57.6328 58.9647 57.3941 58.565C57.2688 58.3522 57.1992 58.0738 57.1853 57.7297H58.0206C58.0206 57.9027 58.0484 58.0458 58.1042 58.1592C58.2075 58.368 58.3956 58.4725 58.6679 58.4725C58.835 58.4725 58.9808 58.4152 59.1051 58.301C59.2294 58.1866 59.2914 58.022 59.2914 57.8072C59.2914 57.5228 59.1761 57.3329 58.9454 57.2375C58.8141 57.1837 58.6074 57.1568 58.3249 57.1568V56.5483C58.6013 56.5443 58.7943 56.5175 58.9037 56.4677C59.0926 56.3843 59.1871 56.2151 59.1871 55.9606C59.1871 55.7954 59.1388 55.6612 59.0425 55.5579C58.946 55.4544 58.8101 55.4026 58.6352 55.4026C58.4342 55.4026 58.2871 55.4663 58.1936 55.5937Z" fill="#00396C"/>
<path d="M61.3625 56.9512H63.0749V57.7566H61.3625V56.9512Z" fill="#00396C"/>
<path d="M67.2522 57.4612V58.1266H66.7629V59.0573H65.9306V58.1266H64.2183V57.3837L65.8083 54.7584H66.7629V57.4612H67.2522ZM64.8477 57.4612H65.9306V55.5938L64.8477 57.4612Z" fill="#00396C"/>
<path d="M69.4697 55.5101L69.3145 56.4559C69.4458 56.3702 69.5482 56.3137 69.6218 56.2857C69.7451 56.24 69.8953 56.2172 70.0723 56.2172C70.4303 56.2172 70.7426 56.3375 71.0091 56.5781C71.2755 56.8188 71.4088 57.1688 71.4088 57.6283C71.4088 58.028 71.2805 58.385 71.0239 58.6992C70.7674 59.0135 70.3835 59.1706 69.8724 59.1706C69.4608 59.1706 69.1226 59.0602 68.858 58.8395C68.5935 58.6187 68.4464 58.3054 68.4165 57.8997H69.2638C69.2977 58.0847 69.3622 58.2274 69.4577 58.3279C69.5531 58.4282 69.6924 58.4784 69.8753 58.4784C70.0862 58.4784 70.2468 58.4044 70.3572 58.2562C70.4676 58.1081 70.5228 57.9216 70.5228 57.6968C70.5228 57.476 70.471 57.2897 70.3677 57.1374C70.2642 56.9853 70.1031 56.9092 69.8843 56.9092C69.7809 56.9092 69.6914 56.9222 69.6159 56.948C69.4827 56.9958 69.3822 57.0843 69.3145 57.2136L68.5508 57.1778L68.8552 54.7881H71.2388V55.5101H69.4697Z" fill="#00396C"/>
<path d="M74.3211 56.25C74.705 56.25 75.0198 56.3803 75.2653 56.6409C75.511 56.9013 75.6338 57.2345 75.6338 57.6403C75.6338 58.0439 75.5135 58.3999 75.2727 58.7082C75.0321 59.0165 74.6582 59.1707 74.1511 59.1707C73.6061 59.1707 73.2043 58.9429 72.9458 58.4874C72.7449 58.1315 72.6445 57.672 72.6445 57.1091C72.6445 56.7791 72.6584 56.5105 72.6862 56.3036C72.7359 55.9357 72.8324 55.6295 72.9757 55.3848C73.099 55.176 73.2606 55.0079 73.4605 54.8806C73.6603 54.7534 73.8995 54.6897 74.178 54.6897C74.5796 54.6897 74.8999 54.7927 75.1385 54.9986C75.3772 55.2043 75.5114 55.4784 75.5413 55.8204H74.694C74.694 55.7508 74.6671 55.6742 74.6135 55.5907C74.5219 55.4554 74.3837 55.3878 74.1987 55.3878C73.9224 55.3878 73.7254 55.5429 73.6081 55.8532C73.5444 56.0242 73.5006 56.2768 73.4768 56.611C73.5823 56.4856 73.7046 56.3942 73.8438 56.3365C73.9831 56.2789 74.142 56.25 74.3211 56.25ZM74.163 58.4785C74.3519 58.4785 74.5006 58.4075 74.609 58.2651C74.7174 58.123 74.7716 57.9385 74.7716 57.7118C74.7716 57.4593 74.7099 57.2657 74.5866 57.1315C74.4633 56.9973 74.3122 56.9302 74.1331 56.9302C73.988 56.9302 73.8597 56.9739 73.7483 57.0615C73.5813 57.1907 73.4978 57.3995 73.4978 57.6879C73.4978 57.9206 73.5604 58.1106 73.6856 58.2577C73.811 58.405 73.9701 58.4785 74.163 58.4785Z" fill="#00396C"/>
<path d="M79.1703 72.7069C79.0034 72.7069 78.8517 72.6158 78.7721 72.4717L78.4762 71.9293L77.9338 71.6334C77.7858 71.5538 77.6986 71.3982 77.6986 71.2351C77.6986 71.072 77.7896 70.9165 77.9338 70.8369L78.48 70.541L78.7758 69.9986C78.9352 69.7065 79.4169 69.7065 79.5762 69.9986L79.8721 70.541L80.4145 70.8369C80.5624 70.9165 80.6534 71.0682 80.6534 71.2351C80.6534 71.402 80.5624 71.5538 80.4183 71.6334L79.8758 71.9293L79.58 72.4717C79.4927 72.6158 79.3372 72.7069 79.1703 72.7069ZM78.389 71.2314L78.7758 71.4438C78.8517 71.4817 78.92 71.55 78.9617 71.6334L79.1665 72.0127L79.379 71.6258C79.4169 71.55 79.4852 71.4817 79.5724 71.44L79.9517 71.2351L79.5648 71.0227C79.489 70.9848 79.4207 70.9165 79.379 70.8331L79.1741 70.4538L78.9617 70.8407C78.9276 70.9089 78.8631 70.9734 78.7834 71.0189C78.7834 71.0189 78.7796 71.0189 78.7796 71.0227L78.389 71.2314ZM78.5103 71.9445C78.5141 71.9445 78.5141 71.9482 78.5179 71.9482L78.5103 71.9445ZM79.8417 71.9407L79.8379 71.9445C79.8379 71.9445 79.8417 71.9445 79.8417 71.9407ZM78.461 71.8989C78.461 71.8989 78.461 71.9027 78.4648 71.9027L78.461 71.8989ZM79.8872 71.8914L79.8834 71.8989C79.8834 71.8951 79.8872 71.8914 79.8872 71.8914ZM78.461 70.5676C78.461 70.5714 78.4572 70.5751 78.4572 70.5751L78.461 70.5676ZM79.8796 70.5638L79.8834 70.5676C79.8834 70.5676 79.8834 70.5638 79.8796 70.5638ZM79.8265 70.5182L79.8341 70.522C79.8341 70.522 79.8303 70.5182 79.8265 70.5182Z" fill="#00396C"/>
<path d="M49.0607 75.0586L48.1238 75.5706C47.9304 75.6768 47.9304 75.9575 48.1238 76.0637L49.0607 76.5758C49.1063 76.6024 49.148 76.6403 49.1707 76.6858L49.6828 77.6227C49.789 77.8161 50.0697 77.8161 50.1759 77.6227L50.688 76.6858C50.7145 76.6403 50.7525 76.5986 50.798 76.5758L51.7349 76.0637C51.9283 75.9575 51.9283 75.6768 51.7349 75.5706L50.798 75.0586C50.7525 75.032 50.7107 74.9941 50.688 74.9486L50.1759 74.0117C50.0697 73.8182 49.789 73.8182 49.6828 74.0117L49.1707 74.9486C49.148 74.9941 49.1101 75.032 49.0607 75.0586Z" fill="#71ABFF"/>
<path d="M49.9293 78.0514C49.7207 78.0514 49.5311 77.9376 49.4324 77.7593L48.9204 76.8224L47.9873 76.3142C47.8052 76.2155 47.6952 76.0259 47.6952 75.8173C47.6952 75.6124 47.809 75.419 47.9873 75.3204L48.9242 74.8083L49.0569 75.0586L48.9242 74.8083L49.4286 73.8752C49.5273 73.6931 49.7169 73.5831 49.9255 73.5831C50.1342 73.5831 50.3238 73.6969 50.4224 73.8752L50.9345 74.8121L51.8676 75.3204C52.0497 75.419 52.1597 75.6086 52.1597 75.8173C52.1597 76.0259 52.0459 76.2155 51.8676 76.3142L50.9307 76.8262L50.4224 77.7593C50.3276 77.9414 50.1379 78.0514 49.9293 78.0514ZM49.1973 75.309L48.2604 75.8211L49.1973 76.3255C49.3035 76.3862 49.3793 76.4659 49.4248 76.5569L49.9331 77.4862L50.4376 76.5493C50.4983 76.4431 50.578 76.3673 50.669 76.3218L51.5983 75.8135L50.6614 75.309C50.5855 75.2635 50.4907 75.1914 50.4338 75.0776L49.9255 74.1483L49.4211 75.0852C49.3755 75.1724 49.2959 75.2521 49.1973 75.309Z" fill="#00396C"/>
<path d="M70.23 45.1121L69.2362 45.6545C69.0276 45.7683 69.0276 46.0642 69.2362 46.1779L70.23 46.7204C70.2793 46.7469 70.321 46.7886 70.3476 46.8379L70.89 47.8317C71.0038 48.0404 71.2996 48.0404 71.4134 47.8317L71.9558 46.8379C71.9824 46.7886 72.0241 46.7469 72.0734 46.7204L73.0672 46.1779C73.2758 46.0642 73.2758 45.7683 73.0672 45.6545L72.0734 45.1121C72.0241 45.0855 71.9824 45.0438 71.9558 44.9945L71.4134 44.0007C71.2996 43.7921 71.0038 43.7921 70.89 44.0007L70.3476 44.9945C70.321 45.0438 70.2793 45.0855 70.23 45.1121Z" fill="#FCC728"/>
<path d="M71.1518 48.2717C70.9394 48.2717 70.7421 48.1541 70.6397 47.9683L70.0973 46.9745L69.0997 46.4283C68.9101 46.3258 68.7963 46.1286 68.7963 45.9162C68.7963 45.7038 68.9139 45.5065 69.0997 45.4041L70.0935 44.8617L70.2301 45.112L70.0935 44.8617C70.0935 44.8617 70.0935 44.8617 70.0973 44.8579L70.6397 43.8641C70.7421 43.6745 70.9394 43.5607 71.1518 43.5607C71.3642 43.5607 71.5614 43.6783 71.6638 43.8641L72.2063 44.8579L73.2038 45.4041C73.3935 45.5065 73.5073 45.7038 73.5073 45.9162C73.5073 46.1286 73.3897 46.3258 73.2038 46.4283L72.2101 46.9707L71.6638 47.9683C71.5614 48.1541 71.3642 48.2717 71.1518 48.2717ZM70.3666 45.3624L69.3728 45.9048L70.3666 46.47C70.4652 46.5231 70.5449 46.6065 70.598 46.7052L71.1404 47.6952L71.7056 46.7014C71.7587 46.6027 71.8383 46.5231 71.937 46.47L72.9307 45.9276L71.937 45.3624C71.8383 45.3093 71.7587 45.2296 71.7056 45.131L71.1632 44.1372L70.598 45.131C70.5449 45.2258 70.4652 45.3093 70.3666 45.3624Z" fill="#00396C"/>
<path d="M96.1596 66.2966L78.4117 84.0408L71.0607 76.6897L64.7262 83.0242L78.4193 96.7173L102.498 72.6311L96.1596 66.2966Z" fill="#00529B"/>
<path d="M96.1596 66.2966L78.4117 84.0408L71.0607 76.6897L64.7262 83.0242L78.4193 96.7173L96.1596 66.2966Z" fill="#45CFE5"/>
<path d="M96.1597 66.2966L78.4117 84.0408L71.0607 76.6897L69.4866 78.2639L78.4193 96.7173L97.7376 67.8708L96.1597 66.2966Z" fill="#45CFE5"/>
<path d="M78.4155 97.0018C78.3396 97.0018 78.2676 96.9714 78.2144 96.9183L64.5213 83.2252C64.4113 83.1152 64.4113 82.9331 64.5213 82.8231L70.8558 76.4887C70.962 76.3825 71.1517 76.3825 71.2579 76.4887L78.4079 83.6387L95.9548 66.0956C96.0648 65.9856 96.2469 65.9856 96.3569 66.0956L102.691 72.43C102.801 72.54 102.801 72.7221 102.691 72.8321L78.6127 96.9183C78.5634 96.9714 78.4913 97.0018 78.4155 97.0018ZM65.1282 83.0242L78.4193 96.3152L102.096 72.6311L96.1634 66.6987L78.6165 84.2418C78.5065 84.3518 78.3244 84.3518 78.2144 84.2418L71.0644 77.0918L65.1282 83.0242Z" fill="#00396C"/>
</g>
<defs>
<clipPath id="clip0_3279_280">
<rect width="88" height="88" fill="white" transform="translate(16 16)"/>
</clipPath>
</defs>
</svg>
