<svg width="120" height="120" viewBox="0 0 120 120" fill="none" xmlns="http://www.w3.org/2000/svg">
<path d="M97.85 40.2107H23.1334V86.0267H97.85V40.2107Z" fill="#00396C"/>
<path d="M23.1334 44.3939V79.9511C23.1334 83.3043 25.8724 86.0433 29.2256 86.0433H51.4364C52.4158 83.5367 53.445 81.2127 54.4908 79.2539L47.4856 40.2273H30.1054L23.1334 44.3939Z" fill="#FAB367"/>
<path d="M97.85 58.2716C94.8122 70.0244 86.7612 79.4034 79.092 86.0268H91.7578C95.111 86.0268 97.85 83.2878 97.85 79.9346V58.2716Z" fill="#4D97CE"/>
<path d="M97.8666 40.2107V86.0267H23.1334V40.2107" stroke="#00396C" stroke-width="0.5" stroke-miterlimit="10" stroke-linecap="round" stroke-linejoin="round"/>
<path d="M23.1334 40.2107V79.9511C23.1334 83.3043 25.8724 86.0433 29.2256 86.0433H91.7744C95.1276 86.0433 97.8666 83.3043 97.8666 79.9511V40.2107" stroke="#00396C" stroke-width="0.5" stroke-miterlimit="10" stroke-linecap="round" stroke-linejoin="round"/>
<path d="M26.0218 32.9731H94.9782C97.933 32.9731 100.34 35.3801 100.34 38.3349V76.4651C100.34 79.4199 97.933 81.8269 94.9782 81.8269H26.0218C23.067 81.8269 20.66 79.4365 20.66 76.4651V38.3349C20.66 35.3635 23.067 32.9731 26.0218 32.9731Z" fill="#00529A"/>
<path d="M20.66 38.5175V60.3631C36.5462 58.9023 62.3592 53.2583 80.5694 32.9731H26.2044C23.15 32.9731 20.66 35.4465 20.66 38.5175Z" fill="#4D97CE"/>
<path d="M100.34 45.141C77.0336 48.5938 62.1433 67.6008 54.1089 81.827H93.8494C97.4184 81.827 100.34 78.9054 100.34 75.3364V45.141Z" fill="#00529A"/>
<path d="M90.3136 57.0597C90.4464 57.0763 90.5626 57.1095 90.6954 57.1095C91.8076 57.2755 92.6542 58.1885 92.8202 59.2675C92.8368 59.4169 92.8534 59.5663 92.8534 59.7157C92.8534 63.5503 92.8534 67.4015 92.8534 71.2361C92.8534 72.2487 92.3886 73.0289 91.5254 73.5601C91.1436 73.7925 90.7286 73.8921 90.297 73.8921C86.4126 73.8921 82.5116 73.9087 78.6272 73.8921C77.3822 73.8921 76.3696 72.9791 76.1372 71.7839C76.0874 71.5681 76.0874 71.3523 76.0874 71.1365C76.0874 67.3185 76.0874 63.5171 76.0874 59.6991C76.0874 58.8027 76.4858 58.0723 77.1996 57.5411C77.5648 57.2755 78.013 57.1095 78.4778 57.0929C78.5276 57.0929 78.5608 57.0763 78.6106 57.0597H90.3136ZM78.8264 65.5257C78.9592 65.4095 79.0588 65.3265 79.1418 65.2269C79.8224 64.5297 80.503 63.8491 81.1836 63.1519C81.5488 62.7701 81.9472 62.4049 82.2958 62.0065C82.7274 61.4919 82.8602 60.8777 82.744 60.2137C82.661 59.7821 82.4784 59.4003 82.1796 59.0849C81.8144 58.6865 81.3662 58.4375 80.835 58.4043C80.3702 58.3711 79.9054 58.3877 79.4572 58.3877C79.1916 58.3877 78.926 58.4209 78.677 58.5703C78.1956 58.8691 77.9632 59.3173 77.9632 59.8651C77.9632 62.5045 77.9632 65.1605 77.9632 67.7999C77.9632 68.9121 77.9632 70.0243 77.9632 71.1365C77.9632 71.8171 78.4114 72.4147 79.0754 72.5143C79.507 72.5807 79.9386 72.5641 80.3702 72.5143C81.0674 72.4479 81.6318 72.1325 82.08 71.5847C82.7772 70.7381 82.744 69.4599 81.9804 68.6797C81.3662 68.0489 80.752 67.4181 80.1212 66.7873C79.7062 66.3889 79.2746 65.9739 78.8264 65.5257ZM83.8562 58.4043C83.9226 58.5205 83.989 58.6201 84.0388 58.7197C84.4538 59.5331 84.57 60.3797 84.4704 61.2761C84.3708 62.1725 84.0056 62.9527 83.3416 63.5835C82.8436 64.0649 82.3622 64.5795 81.8808 65.0775C81.748 65.2103 81.6318 65.3431 81.499 65.4759C81.5322 65.5091 81.5488 65.5423 81.582 65.5755C82.1796 66.1897 82.7938 66.7873 83.3748 67.4015C83.574 67.6173 83.7566 67.8663 83.906 68.1153C84.1716 68.5635 84.3044 69.0615 84.3708 69.5761C84.4206 69.9247 84.4538 70.2567 84.3874 70.6053C84.2712 71.1697 84.0886 71.7341 83.8728 72.2653C83.8396 72.3483 83.8064 72.4479 83.7566 72.5641H83.9392H85.0348C86.5288 72.5641 88.0228 72.5641 89.5168 72.5641C89.799 72.5641 90.0646 72.5143 90.3302 72.3483C88.0892 70.0575 85.8482 67.7667 83.6072 65.4759C83.6238 65.4427 83.657 65.4261 83.6736 65.4095C84.2048 64.8617 84.736 64.3305 85.2672 63.7827C85.7984 63.2349 86.3462 62.6705 86.8774 62.1227C87.2094 61.7741 87.4086 61.3259 87.4418 60.8445C87.4916 60.1971 87.309 59.5995 86.8608 59.1181C86.4956 58.7197 86.0474 58.4541 85.5162 58.4209C85.0182 58.3877 84.5368 58.4043 84.0388 58.4043C83.9724 58.3877 83.9226 58.3877 83.8562 58.4043ZM90.8946 70.4227C90.9112 70.4061 90.9444 70.3895 90.961 70.3895V70.2069C90.961 66.7873 90.961 63.3677 90.961 59.9481C90.961 59.8153 90.9444 59.6825 90.9278 59.5663C90.8448 59.0185 90.3634 58.5039 89.8322 58.4375C89.4006 58.3877 88.9856 58.3877 88.554 58.3877L88.5374 58.4043V58.4209C88.554 58.4541 88.5706 58.4873 88.5872 58.5039C88.9524 59.0849 89.1184 59.7489 89.1682 60.4295C89.2014 60.8279 89.1682 61.2097 89.0852 61.5915C88.9524 62.2887 88.6702 62.9195 88.139 63.4341C87.475 64.0815 86.8442 64.7455 86.1802 65.3929C86.0972 65.4759 86.0972 65.5257 86.1802 65.6087C86.7612 66.2063 87.3422 66.8039 87.9232 67.4015C88.8362 68.3311 89.7658 69.2607 90.6788 70.1903C90.7618 70.2401 90.8282 70.3397 90.8946 70.4227Z" fill="white"/>
<path d="M26.0218 32.9731H94.9782C97.933 32.9731 100.34 35.3801 100.34 38.3349V76.4651C100.34 79.4199 97.933 81.8269 94.9782 81.8269H26.0218C23.067 81.8269 20.66 79.4365 20.66 76.4651V38.3349C20.66 35.3635 23.067 32.9731 26.0218 32.9731Z" stroke="#00396C" stroke-width="0.5" stroke-miterlimit="10" stroke-linecap="round" stroke-linejoin="round"/>
<path d="M27.7063 64.8014H27.3V64.5826H28.3955V64.8014H27.9893V65.9669H27.7063V64.8014Z" fill="white"/>
<path d="M28.3225 65.0001C28.4275 64.9533 28.569 64.922 28.6854 64.922C29.0027 64.922 29.135 65.0515 29.135 65.3529V65.4846C29.135 65.5873 29.1373 65.6655 29.1396 65.7414C29.1419 65.8173 29.1442 65.8865 29.151 65.9669H28.9114C28.9022 65.9133 28.9022 65.8463 28.8999 65.8151H28.8954C28.8338 65.9267 28.6968 65.9915 28.5736 65.9915C28.3887 65.9915 28.2084 65.8821 28.2084 65.6878C28.2084 65.536 28.2837 65.4444 28.3864 65.3953C28.4914 65.3462 28.6238 65.3373 28.7379 65.3373H28.8885C28.8885 65.1721 28.8132 65.1162 28.6534 65.1162C28.537 65.1162 28.4229 65.1587 28.3316 65.2256L28.3225 65.0001ZM28.6398 65.795C28.7219 65.795 28.7881 65.7593 28.8315 65.7034C28.8748 65.6476 28.8885 65.5739 28.8885 65.4958H28.7698C28.6489 65.4958 28.4686 65.5159 28.4686 65.6722C28.4686 65.757 28.5439 65.795 28.6398 65.795Z" fill="white"/>
<path d="M29.3519 64.48H29.6235V65.0761H29.628C29.7034 64.9779 29.7992 64.9221 29.9407 64.9221C30.2603 64.9221 30.379 65.1721 30.379 65.4534C30.379 65.7325 30.2626 65.9915 29.9407 65.9915C29.8243 65.9915 29.6988 65.9513 29.6212 65.8419H29.6166V65.9669H29.3519V64.48ZM29.8654 65.7839C30.0434 65.7839 30.0937 65.5941 30.0937 65.4534C30.0937 65.3172 30.0457 65.1297 29.8677 65.1297C29.6942 65.1297 29.6235 65.3128 29.6235 65.4534C29.6258 65.5986 29.6851 65.7839 29.8654 65.7839Z" fill="white"/>
<path d="M31.4974 65.967H31.2395V65.8286H31.2349C31.1504 65.9268 31.034 65.9916 30.8925 65.9916C30.646 65.9916 30.5388 65.8219 30.5388 65.5897V64.9467H30.8104V65.4914C30.8104 65.6165 30.8126 65.7839 30.9861 65.7839C31.1824 65.7839 31.2258 65.5763 31.2258 65.4445V64.9467H31.4974V65.967Z" fill="white"/>
<path d="M31.7256 64.9466H31.9835V65.085H31.9881C32.0725 64.9689 32.1889 64.922 32.3304 64.922C32.5769 64.922 32.6865 65.0917 32.6865 65.3216V65.9669H32.4149V65.4221C32.4149 65.2971 32.4126 65.1296 32.2391 65.1296C32.0428 65.1296 31.9995 65.3373 31.9995 65.469V65.9691H31.7279V64.9466H31.7256Z" fill="white"/>
<path d="M33.8733 64.9466V65.8687C33.8733 66.1456 33.7592 66.4091 33.321 66.4091C33.2137 66.4091 33.0905 66.3934 32.9604 66.3398L32.9832 66.1143C33.0676 66.1568 33.2023 66.2036 33.2868 66.2036C33.588 66.2036 33.6017 65.9826 33.6017 65.8062H33.5972C33.547 65.8933 33.426 65.9692 33.2731 65.9692C32.9649 65.9692 32.8463 65.7281 32.8463 65.4535C32.8463 65.2079 32.9764 64.9243 33.289 64.9243C33.426 64.9243 33.5333 64.969 33.6086 65.0873H33.6131V64.9466H33.8733ZM33.6017 65.4445C33.6017 65.2704 33.5333 65.1275 33.3758 65.1275C33.1909 65.1275 33.1316 65.2927 33.1316 65.4512C33.1316 65.5897 33.2069 65.7616 33.3621 65.7616C33.5333 65.7616 33.6017 65.6164 33.6017 65.4445Z" fill="white"/>
<path d="M34.1495 65.0001C34.2545 64.9533 34.396 64.922 34.5124 64.922C34.8296 64.922 34.962 65.0515 34.962 65.3529V65.4846C34.962 65.5873 34.9643 65.6655 34.9666 65.7414C34.9689 65.8195 34.9734 65.8888 34.978 65.9691H34.7383C34.7269 65.9155 34.7269 65.8486 34.7247 65.8173H34.7201C34.6562 65.9312 34.5215 65.9937 34.3983 65.9937C34.2134 65.9937 34.0331 65.8843 34.0331 65.69C34.0331 65.5382 34.1084 65.4467 34.2111 65.3976C34.3138 65.3484 34.4485 65.3395 34.5626 65.3395H34.7132C34.7132 65.1743 34.6379 65.1185 34.4782 65.1185C34.3617 65.1185 34.2476 65.1609 34.1563 65.2279L34.1495 65.0001ZM34.4667 65.795C34.5512 65.795 34.6151 65.7593 34.6585 65.7034C34.7018 65.6454 34.7155 65.5717 34.7155 65.4936H34.5991C34.4759 65.4936 34.2978 65.5137 34.2978 65.6699C34.2956 65.757 34.3709 65.795 34.4667 65.795Z" fill="white"/>
<path d="M35.1789 64.9466H35.4368V65.085H35.4414C35.5258 64.9689 35.6422 64.922 35.7837 64.922C36.0302 64.922 36.1375 65.0917 36.1375 65.3216V65.9669H35.8659V65.4221C35.8659 65.2971 35.8636 65.1296 35.6902 65.1296C35.4939 65.1296 35.4505 65.3373 35.4505 65.469V65.9691H35.1789V64.9466Z" fill="white"/>
<path d="M36.9044 64.5826H37.3996C37.5822 64.5826 37.8561 64.634 37.8561 64.9376C37.8561 65.1029 37.742 65.2167 37.5754 65.2457V65.2502C37.7671 65.2681 37.8995 65.3953 37.8995 65.565C37.8995 65.9133 37.58 65.9647 37.4019 65.9647H36.9066V64.5826H36.9044ZM37.1874 65.143H37.3038C37.4225 65.143 37.5708 65.1163 37.5708 64.9734C37.5708 64.8126 37.427 64.8014 37.2969 64.8014H37.1874V65.143ZM37.1874 65.7481H37.322C37.4544 65.7481 37.6142 65.7146 37.6142 65.5561C37.6142 65.3752 37.4635 65.3485 37.322 65.3485H37.1874V65.7481Z" fill="white"/>
<path d="M38.0661 64.5827H38.372C38.6756 64.5827 39.0385 64.5737 39.0385 64.9578C39.0385 65.1207 38.9266 65.2547 38.7463 65.2793V65.2837C38.8239 65.2904 38.8673 65.3641 38.8969 65.4266L39.1229 65.9669H38.8057L38.6345 65.5338C38.5957 65.4311 38.5591 65.3909 38.4382 65.3909H38.3469V65.9647H38.0616V64.5827H38.0661ZM38.3515 65.1743H38.445C38.5843 65.1743 38.7463 65.1542 38.7463 64.9823C38.7463 64.8149 38.5888 64.8015 38.445 64.8015H38.3515V65.1743Z" fill="white"/>
<path d="M39.5383 64.5826H39.2552V65.9669H39.5383V64.5826Z" fill="white"/>
<path d="M27.4073 69.3695C27.6332 69.4879 27.9459 69.5817 28.3065 69.5817C28.5827 69.5817 28.8452 69.5258 28.8452 69.2691C28.8452 68.6729 27.3 69.0503 27.3 67.8848C27.3 67.1145 28.0692 66.9047 28.7242 66.9047C29.0392 66.9047 29.3473 66.9493 29.5687 67.023L29.5116 67.6839C29.2857 67.5834 29.0346 67.5365 28.7858 67.5365C28.5667 67.5365 28.1993 67.5544 28.1993 67.8357C28.1993 68.3537 29.7445 68.0054 29.7445 69.1597C29.7445 69.988 29.0323 70.2135 28.3065 70.2135C28.003 70.2135 27.6218 70.1666 27.3319 70.0751L27.4073 69.3695Z" fill="white"/>
<path d="M31.1595 67.3825H30.3173V66.7775H31.1595V67.3825ZM30.3173 67.771H31.1595V70.1577H30.3173V67.771Z" fill="white"/>
<path d="M31.7827 67.7709H32.5495V68.2107H32.5587C32.7276 67.8669 33.0654 67.7151 33.4488 67.7151C33.7957 67.7151 34.081 67.8624 34.2134 68.1728C34.4097 67.8513 34.7338 67.7151 35.0807 67.7151C35.7837 67.7151 35.9435 68.1036 35.9435 68.7511V70.1576H35.1013V68.8739C35.1013 68.6037 35.0031 68.4028 34.7635 68.4028C34.4645 68.4028 34.2865 68.6372 34.2865 69.1507V70.1576H33.4397V68.8739C33.4397 68.6037 33.3415 68.4028 33.1019 68.4028C32.8029 68.4028 32.6249 68.6372 32.6249 69.1507V70.1576H31.7827V67.7709Z" fill="white"/>
<path d="M36.4479 67.7709H37.2262V68.2018H37.2353C37.4042 67.8669 37.7603 67.7151 38.1437 67.7151C38.8193 67.7151 39.1891 68.3425 39.1891 68.9207C39.1891 69.6263 38.801 70.2135 38.073 70.2135C37.7785 70.2135 37.459 70.1085 37.3015 69.8227H37.2924V71.1199H36.4479V67.7709ZM37.8059 68.3492C37.4978 68.3492 37.2901 68.6149 37.2901 68.9721C37.2901 69.3204 37.5252 69.5816 37.8059 69.5816C38.1255 69.5816 38.3172 69.3204 38.3172 68.9386C38.3172 68.6238 38.1346 68.3492 37.8059 68.3492Z" fill="white"/>
<path d="M40.3303 69.2044C40.3782 69.5348 40.6339 69.6621 41.047 69.6621C41.2775 69.6621 41.54 69.6107 41.7911 69.479V70.0617C41.5194 70.1667 41.209 70.2136 40.8963 70.2136C40.0907 70.2136 39.4767 69.7514 39.4767 68.9632C39.4767 68.1751 40.0245 67.7174 40.7845 67.7174C41.6883 67.7174 42.017 68.3448 42.017 69.0548V69.2066H40.3303V69.2044ZM41.257 68.7377C41.257 68.4631 41.1269 68.2376 40.7891 68.2376C40.4832 68.2376 40.3394 68.4631 40.3212 68.7377H41.257Z" fill="#FAFBFC"/>
<path d="M45.08 70.1577H44.3017V69.7313H44.2926C44.1853 69.997 43.843 70.2113 43.4549 70.2113C42.7291 70.2113 42.3411 69.6241 42.3411 68.9186C42.3411 68.3314 42.7109 67.7129 43.3842 67.7129C43.722 67.7129 44.0073 67.8 44.2218 68.0746H44.231V66.7172H45.08V70.1577ZM43.722 69.5817C44.0027 69.5817 44.2378 69.3205 44.2378 68.9722C44.2378 68.6105 44.0324 68.3493 43.722 68.3493C43.3933 68.3493 43.2107 68.6239 43.2107 68.9409C43.2107 69.3205 43.4024 69.5817 43.722 69.5817Z" fill="white"/>
<path d="M46.3194 69.2044C46.3673 69.5348 46.6252 69.6621 47.036 69.6621C47.2666 69.6621 47.529 69.6107 47.7824 69.479V70.0617C47.5108 70.1667 47.2004 70.2136 46.8877 70.2136C46.082 70.2136 45.468 69.7514 45.468 68.9632C45.468 68.1751 46.0158 67.7174 46.7758 67.7174C47.6797 67.7174 48.0083 68.3448 48.0083 69.0548V69.2066H46.3194V69.2044ZM47.2483 68.7377C47.2483 68.4631 47.1159 68.2376 46.7804 68.2376C46.4768 68.2376 46.3308 68.4631 46.3125 68.7377H47.2483Z" fill="white"/>
<path d="M48.4009 69.4991C48.5972 69.5817 48.887 69.6643 49.1929 69.6643C49.3663 69.6643 49.5352 69.6375 49.5352 69.4723C49.5352 69.0682 48.337 69.354 48.337 68.4921C48.337 67.9429 48.8893 67.7174 49.3778 67.7174C49.6676 67.7174 49.9643 67.7487 50.2359 67.8558L50.1697 68.4296C49.9917 68.3247 49.7247 68.2689 49.5147 68.2689C49.3321 68.2689 49.1267 68.3001 49.1267 68.4341C49.1267 68.8047 50.382 68.5122 50.382 69.4187C50.382 70.055 49.7977 70.2158 49.2431 70.2158C48.8642 70.2158 48.6063 70.1778 48.3575 70.1019L48.4009 69.4991Z" fill="white"/>
<path d="M54.8351 69.0258C54.8351 69.8987 54.2553 70.2917 53.404 70.2917C52.5526 70.2917 51.9729 69.8987 51.9729 69.0258V67.0476H52.8425V68.8851C52.8425 69.3048 52.9589 69.6621 53.404 69.6621C53.849 69.6621 53.9655 69.3048 53.9655 68.8851V67.0476H54.8351V69.0258Z" fill="white"/>
<path d="M55.1865 67.0476H56.556L57.2475 69.1687H57.2567L57.9802 67.0476H59.2994V70.2381H58.4481L58.4618 67.7866H58.4527L57.6219 70.2381H56.823L56.0287 67.7866H56.0196L56.0379 70.2381H55.1865V67.0476Z" fill="white"/>
<path d="M60.5 67.4673H59.6578V66.8645H60.5V67.4673ZM59.6601 67.8558H60.5023V70.2381H59.6601V67.8558Z" fill="white"/>
<path d="M4 69.12H6.46" stroke="#00396C" stroke-miterlimit="10" stroke-linecap="round" stroke-linejoin="round"/>
<path d="M11.8 69.12H14.26" stroke="#00396C" stroke-miterlimit="10" stroke-linecap="round" stroke-linejoin="round"/>
<path d="M9.14001 64V66.46" stroke="#00396C" stroke-miterlimit="10" stroke-linecap="round" stroke-linejoin="round"/>
<path d="M9.14001 71.8V74.26" stroke="#00396C" stroke-miterlimit="10" stroke-linecap="round" stroke-linejoin="round"/>
<path d="M105.385 64.0677L83.9024 86.461L74.9854 77.1864L67.3171 85.1796L83.9024 102.468L113.054 72.061L105.385 64.0677Z" fill="#FF9051"/>
<path d="M105.385 64.0677L83.9024 86.461L74.9854 77.1864L67.3171 85.1796L83.9024 102.468L105.385 64.0677Z" fill="#FF9051"/>
<path d="M105.385 64.0677L83.9025 86.461L74.9854 77.1864L73.0732 79.1796L83.9025 102.468L107.298 66.061L105.385 64.0677Z" fill="#FF610E"/>
<path d="M105.385 64.0677L83.9024 86.461L74.9854 77.1864L67.3171 85.1796L83.9024 102.468L113.054 72.061L105.385 64.0677Z" stroke="#00396C" stroke-width="0.5" stroke-miterlimit="10" stroke-linecap="round" stroke-linejoin="round"/>
<path d="M41 22.2068H43.4" stroke="#00396C" stroke-miterlimit="10" stroke-linecap="round" stroke-linejoin="round"/>
<path d="M48.6097 22.2068H51.0097" stroke="#00396C" stroke-miterlimit="10" stroke-linecap="round" stroke-linejoin="round"/>
<path d="M46.0146 17V19.5017" stroke="#00396C" stroke-miterlimit="10" stroke-linecap="round" stroke-linejoin="round"/>
<path d="M46.0146 24.9323V27.4339" stroke="#00396C" stroke-miterlimit="10" stroke-linecap="round" stroke-linejoin="round"/>
<path d="M105 50.2068H107.4" stroke="#00396C" stroke-miterlimit="10" stroke-linecap="round" stroke-linejoin="round"/>
<path d="M112.61 50.2068H115.01" stroke="#00396C" stroke-miterlimit="10" stroke-linecap="round" stroke-linejoin="round"/>
<path d="M110.015 45V47.5017" stroke="#00396C" stroke-miterlimit="10" stroke-linecap="round" stroke-linejoin="round"/>
<path d="M110.015 52.9323V55.434" stroke="#00396C" stroke-miterlimit="10" stroke-linecap="round" stroke-linejoin="round"/>
</svg>
