<svg width="120" height="120" viewBox="0 0 120 120" fill="none" xmlns="http://www.w3.org/2000/svg">
<path d="M8.76828 39.164C8.76828 23.0959 21.794 10.0702 37.8619 10.0702H82.1381C98.2061 10.0702 111.232 23.0959 111.232 39.164V80.8361C111.232 96.9041 98.2061 109.93 82.1381 109.93H37.8619C21.794 109.93 8.76828 96.9041 8.76828 80.8361V39.164Z" fill="#F4F8FB"/>
<path d="M26.1914 80.9097L25.4006 81.7003L23.6005 79.9001L24.3912 79.1095L26.1914 80.9097Z" fill="#F87304"/>
<path d="M23.1955 77.9139L22.4049 78.7044L20.6046 76.9044L21.3953 76.1136L23.1955 77.9139Z" fill="#F87304"/>
<path d="M21.3953 81.7003L20.6046 80.9097L22.4049 79.1095L23.1955 79.9001L21.3953 81.7003Z" fill="#F87304"/>
<path d="M24.3912 78.7044L23.6005 77.9139L25.4006 76.1136L26.1914 76.9044L24.3912 78.7044Z" fill="#F87304"/>
<path d="M98.3169 61.1741L97.5264 61.9649L95.7261 60.1647L96.5167 59.3739L98.3169 61.1741Z" fill="#F87304"/>
<path d="M95.3213 58.1784L94.5305 58.969L92.7302 57.1687L93.521 56.3782L95.3213 58.1784Z" fill="#F87304"/>
<path d="M93.521 61.9649L92.7302 61.1741L94.5305 59.3739L95.3213 60.1647L93.521 61.9649Z" fill="#F87304"/>
<path d="M96.5167 58.969L95.7261 58.1784L97.5264 56.3782L98.3169 57.1687L96.5167 58.969Z" fill="#F87304"/>
<path d="M84.7865 23.7065L83.9957 24.4971L82.1954 22.6969L82.9862 21.9062L84.7865 23.7065Z" fill="#F87304"/>
<path d="M81.7906 20.7106L81 21.5013L79.1998 19.7011L79.9903 18.9104L81.7906 20.7106Z" fill="#F87304"/>
<path d="M79.9903 24.4971L79.1998 23.7065L81 21.9062L81.7906 22.6969L79.9903 24.4971Z" fill="#F87304"/>
<path d="M82.9862 21.5013L82.1954 20.7106L83.9957 18.9104L84.7865 19.7011L82.9862 21.5013Z" fill="#F87304"/>
<path d="M38.5013 87.8285C38.9184 78.1385 46.9306 70.3832 56.7221 70.3832H69.4097C79.2014 70.3832 87.215 78.1385 87.6307 87.8285H38.5013Z" fill="#00529B"/>
<path d="M69.4097 71.1761C78.4956 71.1761 85.9798 78.1558 86.7838 87.0356H39.3482C40.1522 78.1558 47.6364 71.1761 56.7221 71.1761H69.4097ZM69.4097 69.5902H56.7221C46.2122 69.5902 37.6908 78.1114 37.6908 88.6215H88.441C88.441 78.1114 79.9198 69.5902 69.4097 69.5902Z" fill="#004279"/>
<path d="M63.066 75.141C57.9607 75.141 56.232 71.8074 55.9291 71.1176V62.4536H70.2027V71.1191C69.9046 71.8011 68.1775 75.141 63.066 75.141Z" fill="white"/>
<path d="M69.4097 63.2466V70.9446C69.0276 71.7202 67.4083 74.348 63.066 74.348C58.7364 74.348 57.1092 71.7202 56.7221 70.9431V63.2466H69.4097ZM70.9956 61.6606H55.1362V71.2746C55.1362 71.2746 56.827 75.9339 63.066 75.9339C69.305 75.9339 70.9956 71.2746 70.9956 71.2746V61.6606Z" fill="#004279"/>
<path d="M74.3942 57.242C72.3326 57.242 70.6579 55.5658 70.6579 53.5057C70.6579 51.4455 72.3341 49.7674 74.3942 49.7674C77.5075 49.7674 78.1325 50.6192 78.1325 51.9942C78.1325 54.235 76.2847 57.242 74.3942 57.242ZM51.7375 57.242C49.847 57.242 47.9995 54.235 47.9995 51.9927C47.9995 50.6175 48.6259 49.766 51.7375 49.766C53.7994 49.766 55.4741 51.4438 55.4741 53.504C55.4741 55.5642 53.7994 57.242 51.7375 57.242Z" fill="#B6DCFE"/>
<path d="M74.3942 50.5589C77.3395 50.5589 77.3395 51.3217 77.3395 51.9941C77.3395 53.9513 75.6885 56.4507 74.3942 56.4507C72.7704 56.4507 71.4492 55.1295 71.4492 53.5057C71.4492 51.8816 72.7704 50.5589 74.3942 50.5589ZM51.7375 50.5589C53.3616 50.5589 54.6825 51.8799 54.6825 53.504C54.6825 55.1281 53.3616 56.449 51.7375 56.449C50.4434 56.449 48.7925 53.9513 48.7925 51.9927C48.7925 51.3217 48.7925 50.5589 51.7375 50.5589ZM74.3942 48.973C71.8917 48.973 69.8633 51.0013 69.8633 53.504C69.8633 56.0067 71.8917 58.0349 74.3942 58.0349C76.8969 58.0349 78.9254 54.4952 78.9254 51.9927C78.9254 49.4917 76.8969 48.973 74.3942 48.973ZM51.7375 48.973C49.235 48.973 47.2065 49.4917 47.2065 51.9941C47.2065 54.4969 49.235 58.0366 51.7375 58.0366C54.2402 58.0366 56.2685 56.0081 56.2685 53.5057C56.2685 51.0029 54.2402 48.973 51.7375 48.973Z" fill="#004279"/>
<path d="M63.066 68.7972C62.1079 68.7972 61.2072 68.4514 60.4618 67.7964L60.3175 67.6711L60.1335 67.6253C54.8571 66.2851 51.1714 61.5511 51.1714 56.1096V41.3619C51.1714 38.466 53.5282 36.1078 56.424 36.1078H69.7063C72.6022 36.1078 74.9607 38.4643 74.9607 41.3619V56.1096C74.9607 61.5511 71.2747 66.2851 65.9983 67.6253L65.8145 67.6711L65.67 67.7964C64.9246 68.4514 64.0239 68.7972 63.066 68.7972Z" fill="white"/>
<path d="M69.7063 36.9024C72.1661 36.9024 74.1675 38.9038 74.1675 41.3636V56.1096C74.1675 61.1864 70.7275 65.6048 65.8018 66.8561L65.4322 66.9497L65.1451 67.2017C64.728 67.5682 64.0303 68.0043 63.066 68.0043C62.1017 68.0043 61.4038 67.5682 60.9869 67.2017L60.6999 66.9497L60.3303 66.8561C55.4043 65.6048 51.9643 61.1864 51.9643 56.1096V41.3636C51.9643 38.9038 53.9659 36.9024 56.4257 36.9024H69.7063ZM69.7063 35.3163H56.424C53.0856 35.3163 50.3784 38.0235 50.3784 41.3636V56.1096C50.3784 62.0364 54.4479 66.9987 59.94 68.3928C60.7774 69.1287 61.8639 69.5902 63.066 69.5902C64.2682 69.5902 65.3544 69.1287 66.1918 68.3928C71.6839 66.9987 75.7536 62.0364 75.7536 56.1096V41.3636C75.7536 38.0235 73.0464 35.3163 69.7063 35.3163Z" fill="#004279"/>
<path d="M74.9606 54.5238V48.9731C74.9606 43.208 70.1503 40.1202 69.9441 39.9918L69.3129 39.5953L68.8783 40.2044C68.7436 40.3914 65.5178 44.7815 58.5475 44.7815C56.7237 44.7815 51.173 44.7815 51.173 50.5604V54.5255H50.8891C50.1976 52.9695 48.0009 47.655 48.0009 43.1257C48.0009 34.766 53.7374 29.1503 62.2744 29.1503C68.363 29.1503 70.1916 33.2499 70.2662 33.4244L70.4738 33.9049L70.9956 33.9066C73.6456 33.9066 78.1324 35.7479 78.1324 42.6529C78.1324 46.8097 75.9009 52.7936 75.2174 54.5238H74.9606Z" fill="#3375AF"/>
<path d="M62.273 29.9418C67.7969 29.9418 69.4699 33.5845 69.5318 33.7241L69.9393 34.6995H70.9956C73.9217 34.6995 77.3395 36.7818 77.3395 42.6529C77.3395 45.0891 76.5353 48.2007 75.7536 50.6509V48.973C75.7536 42.7736 70.5864 39.459 70.3661 39.321L69.0957 38.5215L68.2281 39.746C68.1981 39.7887 65.1499 43.9868 58.5461 43.9868C53.1269 43.9882 50.3784 46.1991 50.3784 50.559V51.0569C49.5996 48.8017 48.7925 45.8153 48.7925 43.1223C48.7925 35.2388 54.21 29.9418 62.273 29.9418ZM62.273 28.3556C53.0443 28.3556 47.2065 34.6693 47.2065 43.1223C47.2065 48.7225 50.3784 55.3167 50.3784 55.3167H51.9643C51.9643 55.3167 51.9643 52.0988 51.9643 50.559C51.9643 46.3275 55.1743 45.5744 58.5461 45.5744C66.0475 45.5744 69.5239 40.6642 69.5239 40.6642C69.5239 40.6642 74.1674 43.5793 74.1674 48.973C74.1674 50.6684 74.1674 55.3167 74.1674 55.3167H75.7536C75.7536 55.3167 78.9254 47.755 78.9254 42.6529C78.9254 35.4894 74.3625 33.1136 70.9956 33.1136C70.9956 33.1136 69.0084 28.3556 62.273 28.3556Z" fill="#003B74"/>
<path d="M88.5317 76.9304C82.926 76.9116 78.3634 81.4424 78.3444 87.0586C78.3257 92.6746 82.8581 97.2459 88.4638 97.2646C94.0692 97.2833 98.6321 92.7425 98.6508 87.1265C98.6695 81.5103 94.1371 76.9491 88.5317 76.9304ZM88.5286 77.8246C93.6375 77.8416 97.7652 82.0052 97.7482 87.1234C97.7309 92.2416 93.5753 96.3773 88.4667 96.3603C83.358 96.3432 79.2303 92.18 79.2473 87.0615C79.2643 81.9432 83.4199 77.8076 88.5286 77.8246Z" fill="#004279"/>
<path d="M78.7978 87.0651C78.8155 81.698 83.173 77.3615 88.5303 77.3795C93.8873 77.3972 98.2155 81.7628 98.1977 87.1299C98.1797 92.4973 93.8223 96.8336 88.4652 96.8158C83.1079 96.7978 78.7798 92.4325 78.7978 87.0651Z" fill="#3375AF"/>
<path d="M88.5242 79.1659C84.1514 79.1515 80.5906 82.6851 80.5759 87.066C80.5613 91.447 84.0984 95.0143 88.4712 95.029C92.8438 95.0436 96.4046 91.4998 96.4193 87.1188C96.4339 82.7381 92.8968 79.1806 88.5242 79.1659ZM88.5213 80.0196C92.4201 80.0326 95.5702 83.2099 95.5572 87.1159C95.544 91.0222 92.3729 94.1782 88.4741 94.1652C84.575 94.1523 81.425 90.9751 81.4382 87.0689C81.4512 83.1627 84.6223 80.0067 88.5213 80.0196Z" fill="#004279"/>
<path d="M81.0091 87.0725C81.0231 82.9289 84.3869 79.5811 88.5228 79.5948C92.6585 79.6087 96 82.979 95.9861 87.1226C95.9724 91.266 92.6083 94.614 88.4727 94.6C84.3367 94.5864 80.9952 91.2161 81.0091 87.0725Z" fill="#FF8F50"/>
<path d="M87.3384 91.7374C87.3384 91.1732 87.612 90.7462 87.8938 90.4563C88.2291 90.1109 88.772 90.1109 89.1072 90.4563C89.389 90.7462 89.6628 91.1732 89.6628 91.7374H87.3384Z" fill="white"/>
<path d="M85.0112 81.8677C84.6903 81.8677 84.4299 82.1278 84.4301 82.4487C84.4301 82.7698 84.6903 83.03 85.0112 83.03H91.9844C92.3052 83.03 92.5654 82.7698 92.5654 82.4487C92.5654 82.1278 92.3052 81.8677 91.9844 81.8677H85.0112ZM85.0112 91.1653C84.6903 91.1653 84.4299 91.4254 84.4301 91.7463C84.4301 92.0672 84.6903 92.3274 85.0112 92.3274H91.9844C92.3052 92.3274 92.5654 92.0672 92.5654 91.7463C92.5654 91.4254 92.3052 91.1653 91.9844 91.1653H85.0112ZM86.1732 81.8677C85.8524 81.8677 85.5922 82.1278 85.5922 82.4487V83.7927C85.5922 84.5636 85.9004 85.3182 86.4456 85.8627L88.4976 87.9147L90.5496 85.8627C91.0949 85.3174 91.4031 84.5634 91.4031 83.7927V82.4487C91.4031 82.1278 91.1429 81.8677 90.822 81.8677C90.5012 81.8677 90.241 82.1278 90.241 82.4487V83.7927C90.241 84.2552 90.0598 84.7002 89.7324 85.0275L88.4976 86.2623L87.2628 85.0275C86.9355 84.7004 86.7543 84.2552 86.7543 83.7927V82.4487C86.7543 82.1278 86.4944 81.8677 86.1732 81.8677ZM88.4976 86.2623L86.4456 88.3143C85.9006 88.8586 85.5922 89.6134 85.5922 90.3843V91.7463C85.5922 92.0672 85.8524 92.3274 86.1732 92.3274C86.4941 92.3274 86.7543 92.0672 86.7543 91.7463V90.3843C86.7543 89.9218 86.9357 89.4762 87.2628 89.1495L88.4976 87.9147L89.7324 89.1495C90.0593 89.4764 90.241 89.9226 90.241 90.3843V91.7463C90.241 92.0672 90.5012 92.3274 90.822 92.3274C91.1429 92.3274 91.4031 92.0672 91.4031 91.7463V90.3843C91.4031 89.6144 91.0944 88.8591 90.5496 88.3143L88.4976 86.2623Z" fill="white"/>
<path d="M34.3716 41.779C34.5881 41.809 34.7391 42.0086 34.7091 42.2249L34.4383 44.1838C34.2891 45.2638 35.0465 46.2641 36.1265 46.4134C37.2065 46.5626 38.2068 45.8052 38.3561 44.7252L40.4136 29.8385C40.4436 29.6222 40.2927 29.4223 40.0762 29.3926L26.7562 27.5515C26.5397 27.5215 26.3403 27.6727 26.3103 27.889L24.5777 40.4254L34.3716 41.779Z" fill="#3375AF"/>
<path d="M33.4109 44.2601L33.6276 42.6931L24.2254 41.3935L22.2665 41.1228C22.0498 41.0928 21.8505 41.2442 21.8206 41.4605L21.604 43.0274C21.4248 44.3237 22.3333 45.5237 23.6296 45.703L35.3825 47.3273C35.4487 47.3366 35.5143 47.3407 35.5798 47.3446C34.1731 47.047 33.211 45.7061 33.4109 44.2601Z" fill="#003B74"/>
<path d="M26.7917 27.2878C26.43 27.2376 26.0945 27.492 26.0446 27.8532L24.2755 40.6527C24.2755 40.6527 34.0282 42.0005 34.3344 42.043C34.4057 42.0528 34.4573 42.121 34.4475 42.1923L34.1775 44.1449C34.0083 45.3701 34.8687 46.5065 36.0936 46.6757C37.3188 46.8452 38.4468 45.9836 38.6163 44.7586L40.6733 29.8755C40.7232 29.514 40.4775 29.1795 40.116 29.1293L26.7917 27.2878ZM26.719 27.8129L40.0433 29.6544C40.1148 29.6643 40.1583 29.7312 40.1482 29.8028L38.0911 44.6859C37.9618 45.6212 37.1014 46.28 36.1663 46.1506C35.2311 46.0215 34.5735 45.1527 34.7026 44.2176L34.9726 42.265C35.0225 41.9036 34.7683 41.5678 34.4069 41.5179C34.1091 41.4766 25.6215 40.3035 24.8731 40.2L26.5697 27.926C26.5795 27.8544 26.6477 27.8028 26.719 27.8129Z" fill="#003B74"/>
<path d="M22.3073 40.8572C21.9458 40.8073 21.6102 41.0615 21.5602 41.4229L21.3436 42.9898C21.1444 44.4313 22.1496 45.7686 23.5909 45.9678L35.3482 47.5928C35.4007 47.6002 35.4559 47.5959 35.5227 47.6003C35.5385 47.6015 35.5455 47.6048 35.5637 47.606L35.6352 47.089C34.3562 46.8183 33.4925 45.5924 33.6722 44.2926L33.925 42.4631L22.3073 40.8572ZM22.2347 41.3823L33.3274 42.9154L33.1471 44.2201C33.0019 45.2701 33.4548 46.2486 34.2065 46.8999L23.6635 45.4426C22.5122 45.2835 21.7096 44.2139 21.8687 43.0626L22.0853 41.4954C22.0952 41.4241 22.1633 41.3725 22.2347 41.3823Z" fill="#003B74"/>
<path d="M38.6146 34.0664L36.5165 31.6998C36.5165 31.6998 38.7567 29.0094 41.1233 26.9113C43.4899 24.8132 45.7438 23.5194 45.7438 23.5194L47.8419 25.886C47.8419 25.886 46.2867 27.969 43.9207 30.0666C41.5546 32.1642 38.6146 34.0664 38.6146 34.0664ZM34.974 35.1807C34.974 35.1807 34.8943 33.8425 36.1222 32.0492L38.2203 34.4159C36.2928 35.42 34.974 35.1807 34.974 35.1807Z" fill="#FF8F50"/>
<path d="M45.8616 23.414C45.8129 23.3589 45.7275 23.3473 45.6636 23.3839C45.6473 23.3933 45.4097 23.5339 45.3118 23.5945C45.0319 23.7673 44.7173 23.9691 44.375 24.1995C43.3982 24.8576 42.4013 25.6093 41.4283 26.4406C41.292 26.5573 41.1511 26.6799 41.0177 26.7982C40.6886 27.0901 40.3584 27.3987 40.0152 27.729C39.1553 28.5565 38.292 29.4622 37.47 30.3762C37.1825 30.6958 36.9197 30.9882 36.6881 31.2572C36.607 31.3513 36.4078 31.5802 36.3946 31.5961C36.3454 31.6549 36.3456 31.7456 36.3965 31.803L38.5003 34.1691C38.5512 34.2265 38.634 34.2409 38.6983 34.1991C38.713 34.1895 38.9268 34.0472 39.0161 33.9874C39.2715 33.8168 39.5604 33.6176 39.8698 33.4021C40.753 32.7865 41.6491 32.127 42.5023 31.4509C43.0467 31.0198 43.554 30.5984 44.0215 30.1839C45.0619 29.2616 46.0255 28.2745 46.8855 27.2912C47.1864 26.9468 47.4578 26.6252 47.6875 26.3384C47.7682 26.2378 47.9571 25.9959 47.9695 25.9791C48.0137 25.9201 48.0041 25.8409 47.9554 25.7857L45.8616 23.414ZM45.7159 23.7171L47.6405 25.8949C47.5779 25.9758 47.4972 26.0768 47.4401 26.1481C47.2131 26.4315 46.9483 26.7464 46.6503 27.0872C45.7987 28.0611 44.8493 29.0418 43.8192 29.955C43.3563 30.3654 42.8527 30.7806 42.3127 31.2082C41.4648 31.8798 40.571 32.5333 39.6924 33.1455C39.3919 33.355 38.7317 33.8014 38.6381 33.8636L36.7272 31.6983C36.7934 31.6201 36.8674 31.5258 36.923 31.461C37.1532 31.1938 37.411 30.896 37.697 30.5778C38.5145 29.6691 39.3734 28.7742 40.2274 27.9524C40.5679 27.6248 40.902 27.3183 41.2277 27.0296C41.3599 26.9125 41.4934 26.793 41.6283 26.6778C42.5916 25.8548 43.5847 25.1079 44.5524 24.4561C44.891 24.2281 45.1999 24.0354 45.4764 23.8647C45.5436 23.8232 45.6365 23.7646 45.7159 23.7171ZM36.2355 31.947C36.1683 31.8714 36.0468 31.8805 35.9897 31.9638C35.2488 33.0457 34.9116 34.0434 34.8336 34.8735C34.8194 35.0238 34.8185 35.1286 34.8221 35.1886C34.8264 35.2602 34.8739 35.3221 34.9442 35.335C34.9922 35.3437 35.0825 35.3514 35.2049 35.3569C35.4053 35.3655 35.6352 35.3569 35.8932 35.3271C36.625 35.2429 37.4273 35.0048 38.2877 34.5567C38.3772 34.5099 38.4062 34.3885 38.3393 34.3129L36.2355 31.947ZM36.1558 32.3204L37.956 34.3599C37.2053 34.7257 36.4961 34.9513 35.8579 35.0247C35.6167 35.0523 35.3983 35.0576 35.2142 35.0497C35.1749 35.048 35.1677 35.0478 35.1379 35.0454C35.1394 34.9988 35.1375 34.9722 35.1442 34.9009C35.2131 34.1691 35.5323 33.2842 36.1558 32.3204Z" fill="#003B74"/>
<path d="M36.3912 33.9272C36.3233 33.8504 36.2074 33.8374 36.1306 33.9053L34.663 35.204C34.5862 35.2719 34.5811 35.3902 34.649 35.4668C34.717 35.5436 34.8353 35.5486 34.9118 35.4807L36.3797 34.1821C36.4562 34.1141 36.4591 34.0037 36.3912 33.9272Z" fill="#003B74"/>
<path d="M48.1334 25.4204L46.241 23.2858C47.2764 22.865 47.8478 22.7145 48.3705 23.3041C48.8933 23.8936 48.6753 24.4424 48.1334 25.4204Z" fill="#003B74"/>
<path d="M43.9841 22.962C43.817 22.9519 43.5334 22.9903 43.145 23.1298C42.522 23.3535 41.8186 23.7734 41.0618 24.4441C40.3104 25.1103 39.708 25.8373 39.2398 26.5724C39.0754 26.8304 38.9398 27.0735 38.8303 27.2917C38.7636 27.4244 38.7214 27.518 38.6993 27.573C38.6448 27.7088 38.7161 27.8627 38.8519 27.9174C38.9878 27.9719 39.1392 27.9085 39.1939 27.7727C39.2105 27.7311 39.2458 27.6483 39.3055 27.5288C39.407 27.3265 39.539 27.0978 39.6936 26.8551C40.1364 26.1599 40.7009 25.4763 41.4137 24.8447C42.1212 24.2173 42.7654 23.8278 43.3231 23.6275C43.5125 23.5595 43.6774 23.5186 43.8154 23.4995C43.8362 23.4966 43.8353 23.4943 43.8516 23.4926L44.7598 24.5144C44.8567 24.6241 45.0211 24.6387 45.1306 24.5418C45.2402 24.4446 45.2491 24.2701 45.1522 24.1604L44.1665 23.0478C44.1197 22.9952 44.0542 22.9662 43.9841 22.962Z" fill="#003B74"/>
</svg>
